<svg width="317" height="236" viewBox="0 0 317 236" fill="none" xmlns="http://www.w3.org/2000/svg">
<path d="M72.3073 178.191L71.5269 221.772L3.13293 221.935L3.03394 177.766L72.3073 178.191Z" fill="#EBEBEB"/>
<path d="M32.0162 221.813C31.923 221.813 32.0162 212.083 32.2433 200.081C32.4704 188.079 32.7034 178.354 32.7907 178.36C32.8781 178.366 32.7907 188.085 32.5636 200.087C32.3365 212.088 32.1036 221.813 32.0162 221.813Z" fill="#E0E0E0"/>
<path d="M3.13293 221.935C3.21587 221.776 3.30924 221.622 3.41245 221.475L4.25682 220.2L7.43049 215.542L17.988 200.197C22.1109 194.217 25.8203 188.79 28.4699 184.83C29.7976 182.856 30.8458 181.237 31.5678 180.125C31.9114 179.583 32.1851 179.146 32.3889 178.832C32.478 178.675 32.5813 178.527 32.6975 178.389C32.6228 178.551 32.5392 178.708 32.4471 178.861L31.6727 180.189C30.9855 181.353 29.9606 182.961 28.662 184.958C26.0649 188.947 22.3846 194.397 18.2559 200.384C14.1272 206.37 10.3654 211.751 7.62266 215.641L4.36746 220.247L3.47068 221.487C3.37146 221.646 3.25845 221.796 3.13293 221.935Z" fill="#E0E0E0"/>
<path d="M32.0162 221.813C31.8981 221.68 31.7928 221.535 31.7018 221.382L30.8516 220.119L27.7594 215.46L17.4989 200.133C13.475 194.153 9.86459 188.72 7.30236 184.754C6.02707 182.768 4.97306 181.155 4.30339 180.037L3.50561 178.739C3.40529 178.593 3.31762 178.439 3.24356 178.279C3.3605 178.411 3.46572 178.553 3.55802 178.704L4.40821 179.967C5.15358 181.091 6.20177 182.681 7.49453 184.626L17.7609 199.953C21.7848 205.933 25.3894 211.366 27.9516 215.338C29.2327 217.318 30.2809 218.931 30.9564 220.055L31.7542 221.347C31.8526 221.496 31.9402 221.652 32.0162 221.813Z" fill="#E0E0E0"/>
<path d="M39.0769 216.867L50.0578 217.064L50.0982 214.817L39.1173 214.619L39.0769 216.867Z" fill="#E0E0E0"/>
<path d="M39.633 212.805C41.4171 212.631 43.2101 212.567 45.0021 212.612C46.7946 212.549 48.5894 212.592 50.3769 212.741C48.5926 212.911 46.7998 212.975 45.0079 212.933C43.2153 212.996 41.4206 212.953 39.633 212.805Z" fill="#E0E0E0"/>
<path d="M54.2319 177.941L53.9291 194.764L51.5591 192.883L48.4844 194.665L48.7872 177.842L54.2319 177.941Z" fill="#E0E0E0"/>
<path d="M64.1023 145.179L63.5083 178.442L11.3146 178.564L11.2331 144.853L64.1023 145.179Z" fill="#F5F5F5"/>
<path d="M33.3556 178.471C33.2857 178.471 33.3556 171.046 33.5303 161.886C33.705 152.726 33.8797 145.307 33.9495 145.307C34.0194 145.307 33.9495 152.732 33.7748 161.892C33.6002 171.052 33.4196 178.471 33.3556 178.471Z" fill="#E0E0E0"/>
<path d="M11.3146 178.564C11.3753 178.442 11.4454 178.325 11.5242 178.215C11.6873 177.974 11.9027 177.648 12.1706 177.236C12.7529 176.38 13.5798 175.169 14.5931 173.684C16.6661 170.673 19.5079 166.551 22.6524 161.997C25.797 157.443 28.6271 153.262 30.6477 150.269C31.6552 148.755 32.4588 147.526 33.012 146.676L33.6351 145.686C33.707 145.57 33.7847 145.457 33.868 145.348C33.8132 145.475 33.749 145.598 33.6758 145.715L33.0935 146.722C32.5694 147.59 31.7891 148.842 30.7992 150.362C28.8134 153.408 26.0066 157.571 22.8562 162.137C19.7059 166.702 16.8292 170.807 14.7386 173.783L12.2579 177.277C11.9668 177.673 11.7397 177.993 11.5708 178.226C11.4953 178.346 11.4096 178.459 11.3146 178.564Z" fill="#E0E0E0"/>
<path d="M33.3556 178.471C33.2633 178.371 33.1814 178.261 33.111 178.145L32.4646 177.178C31.8823 176.322 31.0961 175.111 30.1062 173.626L22.2564 161.927C19.1876 157.367 16.4332 153.192 14.4766 150.187C13.5041 148.673 12.7296 147.445 12.1881 146.589L11.6057 145.599C11.4718 145.371 11.4019 145.249 11.4077 145.249C11.4985 145.349 11.5785 145.459 11.6465 145.575L12.2987 146.536C12.881 147.398 13.6672 148.603 14.628 150.094L22.4661 161.793C25.5349 166.353 28.2893 170.499 30.2401 173.527C31.2184 175.041 31.9871 176.275 32.5345 177.131L33.1459 178.116C33.224 178.229 33.294 178.348 33.3556 178.471Z" fill="#E0E0E0"/>
<path d="M39.1311 174.456L47.5107 174.624L47.5451 172.906L39.1654 172.738L39.1311 174.456Z" fill="#E0E0E0"/>
<path d="M39.1439 171.594C40.4986 171.466 41.8597 171.417 43.2201 171.448C44.5797 171.403 45.9406 171.436 47.2964 171.547C45.9418 171.678 44.5806 171.727 43.2201 171.693C41.8606 171.744 40.4993 171.711 39.1439 171.594Z" fill="#EBEBEB"/>
<path d="M53.5506 144.993L53.3177 157.833L51.5125 156.395L49.1657 157.758L49.3928 144.917L53.5506 144.993Z" fill="#E0E0E0"/>
<path d="M69.7625 218.791C69.1509 216.978 68.0058 215.392 66.4773 214.24C64.9488 213.089 63.1081 212.426 61.1965 212.339L59.5951 124.204H67.3051V125.52H68.7551V122.364H56.7767C56.7767 122.364 58.2034 187.386 59.2399 212.426C58.7247 212.51 58.2166 212.632 57.72 212.793C55.8047 213.438 54.1448 214.676 52.9814 216.329C51.818 217.981 51.2117 219.962 51.2504 221.982L23.9394 221.621L24.7197 225.208L51.6406 224.469C51.6755 224.591 51.7046 224.713 51.7454 224.841C52.1216 226.052 52.7362 227.175 53.5529 228.145C54.3697 229.115 55.3721 229.912 56.5012 230.488C57.6304 231.065 58.8634 231.41 60.1279 231.503C61.3923 231.596 62.6627 231.436 63.8641 231.031C65.0656 230.626 66.1739 229.984 67.1239 229.145C68.0739 228.305 68.8464 227.284 69.396 226.141C69.9456 224.999 70.2611 223.758 70.3241 222.492C70.387 221.225 70.1961 219.959 69.7625 218.768V218.791Z" fill="#E0E0E0"/>
<path d="M29.1745 230.455H30.6186L33.4021 224.993L31.102 225.057L29.1745 230.455Z" fill="#E0E0E0"/>
<path d="M253.136 0H225.791V7.55857H253.136V0Z" fill="#EBEBEB"/>
<path d="M276.517 159.999H249.171V167.558H276.517V159.999Z" fill="#EBEBEB"/>
<path d="M246.195 7.55275H218.849V15.1113H246.195V7.55275Z" fill="#F5F5F5"/>
<path d="M259.111 167.797H239.464V175.355H259.111V167.797Z" fill="#F5F5F5"/>
<path d="M143.741 25.1506H84.8331V145.616H143.741V25.1506Z" fill="#EBEBEB"/>
<path d="M114.264 25.1506C114.264 25.1506 102.186 79.7959 84.8098 83.5286C84.8098 83.5286 91.7977 121.863 92.4673 145.616H84.8331V25.1506H114.264Z" fill="#E0E0E0"/>
<path d="M114.485 25.1506C114.485 25.1506 126.562 79.7959 143.962 83.5286C143.962 83.5286 136.974 121.863 136.311 145.616H143.962V25.1506H114.485Z" fill="#E0E0E0"/>
<path d="M115.364 24.9177H113.216V145.616H115.364V24.9177Z" fill="#FAFAFA"/>
<path d="M98.9894 24.9177H98.4595V145.616H98.9894V24.9177Z" fill="#FAFAFA"/>
<path d="M130.79 24.9177H130.26V145.616H130.79V24.9177Z" fill="#FAFAFA"/>
<path d="M143.741 54.8491V55.3325L84.8331 55.5712V55.0879L143.741 54.8491Z" fill="#FAFAFA"/>
<path d="M143.741 114.782V115.254L84.8331 115.492V115.021L143.741 114.782Z" fill="#FAFAFA"/>
<path d="M143.741 84.175H84.8331V86.184H143.741V84.175Z" fill="#FAFAFA"/>
<path d="M144.614 146.49H83.9828V24.2771H144.614V146.49ZM85.7065 144.743H142.867V26.0241H85.7298L85.7065 144.743Z" fill="#F5F5F5"/>
<path d="M316.127 25.1506H257.219V145.616H316.127V25.1506Z" fill="#EBEBEB"/>
<path d="M286.673 25.1506C286.673 25.1506 274.595 79.7959 257.219 83.5286C257.219 83.5286 264.206 121.863 264.87 145.616H257.219V25.1506H286.673Z" fill="#E0E0E0"/>
<path d="M286.87 25.1506C286.87 25.1506 298.948 79.7959 316.33 83.5286C316.33 83.5286 309.342 121.863 308.673 145.616H316.33V25.1506H286.87Z" fill="#E0E0E0"/>
<path d="M287.744 24.9177H285.595V145.616H287.744V24.9177Z" fill="#FAFAFA"/>
<path d="M271.369 24.9177H270.839V145.616H271.369V24.9177Z" fill="#FAFAFA"/>
<path d="M303.17 24.9177H302.64V145.616H303.17V24.9177Z" fill="#FAFAFA"/>
<path d="M316.127 54.8491V55.3325L257.219 55.5712V55.0879L316.127 54.8491Z" fill="#FAFAFA"/>
<path d="M316.127 114.782V115.254L257.219 115.492V115.021L316.127 114.782Z" fill="#FAFAFA"/>
<path d="M316.127 84.175H257.219V86.184H316.127V84.175Z" fill="#FAFAFA"/>
<path d="M317 146.49H256.351V24.2771H317V146.49ZM258.092 144.743H315.253V26.0241H258.098L258.092 144.743Z" fill="#F5F5F5"/>
<path d="M132.951 213.195C130.843 212.206 128.473 211.918 126.19 212.374C124.961 212.578 123.68 212.956 122.847 213.864C122.014 214.773 121.851 216.409 122.812 217.201C123.43 217.622 124.176 217.812 124.92 217.737C126.708 217.737 128.688 217.399 130.12 218.477C130.936 219.094 131.477 220.113 132.45 220.416C132.938 220.525 133.449 220.474 133.906 220.271C134.363 220.067 134.743 219.722 134.989 219.286C135.45 218.387 135.552 217.346 135.274 216.374C135.157 215.702 134.886 215.065 134.483 214.513C134.08 213.962 133.556 213.511 132.951 213.195Z" fill="#EBEBEB"/>
<path d="M137.667 204.093C136.41 205.892 133.964 205.298 132.828 204.198C131.693 203.097 131.215 201.513 130.778 199.999C129.783 196.505 128.775 192.901 129.521 189.372C129.693 188.294 130.163 187.285 130.877 186.46C131.236 186.059 131.693 185.758 132.204 185.587C132.715 185.417 133.261 185.382 133.789 185.488C135.018 185.814 135.786 187.019 136.34 188.172C137.974 191.562 138.829 195.275 138.844 199.038C138.844 200.785 138.646 202.626 137.679 204.07" fill="#EBEBEB"/>
<path d="M141.121 206.673C140.475 205.828 140.045 204.839 139.869 203.791C139.692 202.742 139.774 201.667 140.107 200.657C140.795 198.638 142.029 196.848 143.671 195.486C145.54 193.825 147.716 192.545 150.077 191.719C150.988 191.354 151.967 191.189 152.948 191.235C153.437 191.263 153.912 191.411 154.331 191.665C154.75 191.918 155.101 192.271 155.353 192.691C156.028 193.972 155.382 195.527 154.683 196.767C153.459 199.011 152.057 201.154 150.49 203.173C149.238 204.792 147.8 206.387 145.884 207.121C143.968 207.855 141.977 207.768 140.963 206.44" fill="#EBEBEB"/>
<path d="M137.755 231.206C137.683 230.94 137.644 230.666 137.638 230.391C137.58 229.809 137.51 229.046 137.423 228.161C137.335 227.275 137.178 226.105 136.922 224.888C136.634 223.575 136.245 222.286 135.757 221.033C135.269 219.78 134.604 218.604 133.783 217.539C133.119 216.673 132.269 215.967 131.297 215.472C130.636 215.142 129.926 214.922 129.195 214.819C128.921 214.81 128.649 214.769 128.385 214.697C128.66 214.669 128.937 214.669 129.212 214.697C129.969 214.757 130.709 214.955 131.396 215.28C132.424 215.762 133.325 216.478 134.028 217.37C134.88 218.448 135.567 219.647 136.066 220.928C136.566 222.201 136.955 223.514 137.231 224.853C137.441 225.946 137.586 227.05 137.667 228.161C137.737 229.11 137.761 229.873 137.772 230.402C137.792 230.67 137.787 230.939 137.755 231.206Z" fill="#E0E0E0"/>
<path d="M137.597 229.488C137.584 229.362 137.584 229.236 137.597 229.11C137.597 228.824 137.597 228.469 137.597 228.027C137.597 227.089 137.597 225.697 137.551 224.044C137.464 220.683 137.178 216.048 136.619 210.947C136.06 205.846 135.309 201.257 134.628 197.967C134.465 197.14 134.307 196.395 134.15 195.748C133.993 195.102 133.882 194.531 133.766 194.077C133.649 193.623 133.579 193.303 133.51 193.023C133.473 192.902 133.452 192.777 133.445 192.65C133.5 192.764 133.542 192.883 133.574 193.006C133.661 193.279 133.76 193.623 133.888 194.048C134.016 194.473 134.173 195.055 134.336 195.702C134.5 196.348 134.686 197.094 134.861 197.915C135.787 202.205 136.485 206.542 136.951 210.906C137.533 216.019 137.766 220.672 137.79 224.044C137.79 225.726 137.79 227.089 137.726 228.032C137.726 228.469 137.679 228.83 137.662 229.116C137.656 229.242 137.635 229.367 137.597 229.488Z" fill="#E0E0E0"/>
<path d="M137.557 220.515C137.527 220.139 137.527 219.761 137.557 219.385C137.597 218.657 137.696 217.603 137.9 216.316C138.15 214.81 138.482 213.319 138.896 211.85C139.394 210.045 140.018 208.278 140.765 206.562C142.073 203.402 143.946 200.508 146.292 198.019C146.695 197.593 147.124 197.192 147.578 196.82C147.776 196.651 147.951 196.482 148.132 196.354L148.633 196.005C148.933 195.783 149.253 195.588 149.588 195.422C148.487 196.282 147.442 197.212 146.46 198.206C144.206 200.719 142.396 203.598 141.109 206.719C140.371 208.424 139.744 210.174 139.234 211.96C138.807 213.415 138.453 214.89 138.174 216.38C137.935 217.655 137.801 218.709 137.72 219.42C137.696 219.789 137.641 220.155 137.557 220.515Z" fill="#E0E0E0"/>
<path d="M307.892 231.643C307.892 231.724 242.055 231.794 160.855 231.794C79.6562 231.794 13.8069 231.724 13.8069 231.643C13.8069 231.561 79.6096 231.491 160.855 231.491C242.101 231.491 307.892 231.561 307.892 231.643Z" fill="#263238"/>
<path d="M266.716 212.63C258.249 207.086 256.1 196.476 256.194 186.891C256.194 185.29 255.996 183.613 256.729 182.192C257.463 180.771 259.239 179.769 260.707 180.404C261.924 180.934 262.454 182.302 263.182 183.432C264.122 184.941 265.471 186.152 267.071 186.926C268.114 187.433 269.401 187.724 270.402 187.147C271.782 186.35 271.899 184.44 271.852 182.85C271.759 179.888 271.668 176.926 271.579 173.964C271.44 172.376 271.564 170.777 271.946 169.229C272.411 167.709 273.483 166.277 275.009 165.817C276.534 165.357 278.444 166.184 278.805 167.733C278.882 168.39 278.915 169.051 278.904 169.713C278.903 170.043 278.999 170.367 279.182 170.643C279.364 170.918 279.624 171.134 279.929 171.262C280.581 171.436 281.21 170.97 281.676 170.493C283.301 168.845 284.378 166.749 285.386 164.67C286.393 162.591 287.36 160.454 288.827 158.672C290.295 156.89 292.321 155.446 294.65 155.259C296.98 155.073 299.449 156.424 300.083 158.643C300.718 160.861 299.455 163.179 298.057 165.048C295.979 167.786 293.518 170.21 290.749 172.246C290.206 172.555 289.777 173.031 289.526 173.603C289.206 174.674 290.248 175.705 291.314 176.025C292.525 176.392 293.823 176.235 295.087 176.351C296.351 176.468 297.719 176.98 298.226 178.145C298.925 179.752 297.591 181.487 296.263 182.64C293.594 184.94 290.554 186.769 287.272 188.05C286.108 188.504 284.856 188.912 283.924 189.756C282.992 190.601 282.445 192.045 283.05 193.151C283.656 194.258 285.147 194.578 286.381 194.316C287.616 194.054 288.711 193.367 289.875 192.901C292.065 192.021 294.93 192.103 296.392 193.961C296.841 194.597 297.134 195.33 297.248 196.101C297.361 196.872 297.291 197.659 297.044 198.398C296.544 199.871 295.752 201.228 294.714 202.387C291.29 206.638 286.805 209.91 281.711 211.873C276.616 213.754 271.87 214.348 266.716 212.624" fill="#53B51E"/>
<path d="M297.696 156.523C297.696 156.523 297.649 156.581 297.544 156.68L297.079 157.111C296.665 157.49 296.054 158.049 295.291 158.788C293.127 160.867 291.123 163.108 289.299 165.491C288.134 166.993 286.929 168.694 285.671 170.54C284.413 172.386 283.08 174.371 281.763 176.508C280.367 178.734 279.095 181.036 277.955 183.403C277.373 184.632 276.843 185.919 276.307 187.229C275.771 188.539 275.236 189.867 274.694 191.212C272.615 196.252 270.822 201.406 269.325 206.649C268.124 210.936 267.332 215.327 266.961 219.763C266.722 222.755 266.745 225.761 267.031 228.749C267.141 229.803 267.246 230.624 267.333 231.177C267.368 231.441 267.398 231.651 267.421 231.806C267.43 231.877 267.43 231.95 267.421 232.021C267.396 231.953 267.379 231.883 267.368 231.812C267.339 231.654 267.299 231.451 267.252 231.183C267.141 230.635 267.019 229.814 266.891 228.76C266.56 225.767 266.505 222.749 266.728 219.746C267.079 215.293 267.859 210.883 269.057 206.58C270.542 201.321 272.331 196.153 274.415 191.101C274.956 189.756 275.498 188.429 276.028 187.112C276.557 185.796 277.087 184.509 277.687 183.275C278.838 180.902 280.119 178.594 281.525 176.363C282.852 174.226 284.192 172.246 285.461 170.4C286.731 168.554 287.948 166.859 289.124 165.363C290.971 162.987 293.004 160.761 295.203 158.707C295.984 157.979 296.607 157.431 297.032 157.07L297.521 156.657L297.696 156.523Z" fill="#263238"/>
<path d="M277.786 183.252C277.706 183.033 277.647 182.807 277.612 182.576C277.518 182.139 277.402 181.499 277.268 180.713C277 179.135 276.686 176.945 276.394 174.528C276.103 172.112 275.76 169.928 275.469 168.356C275.323 167.57 275.201 166.941 275.113 166.498C275.045 166.285 275.002 166.064 274.985 165.84C275.079 166.054 275.151 166.276 275.201 166.504C275.329 166.935 275.48 167.564 275.649 168.344C275.993 169.911 276.354 172.094 276.668 174.517L277.454 180.713C277.553 181.452 277.635 182.081 277.705 182.588C277.758 182.805 277.786 183.028 277.786 183.252Z" fill="#263238"/>
<path d="M298.406 178.937C298.136 178.998 297.862 179.037 297.585 179.053C297.055 179.111 296.287 179.193 295.343 179.327C293.451 179.571 290.848 180.002 288 180.608C285.153 181.214 282.596 181.866 280.762 182.396C279.842 182.652 279.102 182.879 278.59 183.036C278.329 183.132 278.06 183.204 277.786 183.252C278.031 183.118 278.289 183.009 278.555 182.926C279.056 182.739 279.784 182.477 280.698 182.192C282.521 181.61 285.077 180.922 287.936 180.317C290.373 179.79 292.836 179.39 295.314 179.117C296.269 179.012 297.061 178.96 297.574 178.937C297.85 178.906 298.13 178.906 298.406 178.937Z" fill="#263238"/>
<path d="M269.319 206.184C269.262 206.108 269.213 206.026 269.174 205.939L268.801 205.205C268.481 204.571 268.038 203.639 267.514 202.48C266.454 200.151 265.097 196.913 263.647 193.308C262.197 189.704 260.876 186.449 259.868 184.114L258.68 181.347L258.36 180.596C258.316 180.51 258.282 180.418 258.261 180.323C258.261 180.323 258.325 180.404 258.412 180.567C258.5 180.73 258.634 181.01 258.785 181.301C259.105 181.936 259.542 182.867 260.072 184.026C261.126 186.355 262.489 189.593 263.939 193.198C265.389 196.802 266.71 200.058 267.718 202.393L268.917 205.159C269.046 205.462 269.15 205.741 269.238 205.91C269.279 205.996 269.306 206.089 269.319 206.184Z" fill="#263238"/>
<path d="M296.636 196.773C296.548 196.819 296.456 196.858 296.362 196.89L295.57 197.175L292.659 198.182C290.19 199.038 286.789 200.261 283.039 201.618C279.289 202.975 275.876 204.163 273.39 204.967C272.144 205.374 271.136 205.689 270.431 205.892L269.622 206.125C269.528 206.158 269.43 206.178 269.331 206.184C269.416 206.132 269.508 206.093 269.605 206.067L270.397 205.782L273.308 204.769C275.777 203.913 279.178 202.695 282.928 201.339C286.678 199.982 290.091 198.794 292.577 197.984C293.823 197.583 294.831 197.268 295.535 197.064L296.345 196.831C296.439 196.798 296.537 196.779 296.636 196.773Z" fill="#263238"/>
<path d="M33.3265 73.8795C51.4555 73.8795 66.1521 59.183 66.1521 41.0539C66.1521 22.9248 51.4555 8.22824 33.3265 8.22824C15.1974 8.22824 0.500824 22.9248 0.500824 41.0539C0.500824 59.183 15.1974 73.8795 33.3265 73.8795Z" fill="#FAFAFA"/>
<path d="M33.3206 74.3745C26.7304 74.3745 20.2882 72.4203 14.8087 68.7589C9.32914 65.0976 5.05835 59.8937 2.5364 53.8051C0.0144385 47.7166 -0.645422 41.0169 0.640261 34.5533C1.92594 28.0898 5.09943 22.1526 9.7594 17.4926C14.4194 12.8327 20.3565 9.65919 26.8201 8.37351C33.2837 7.08782 39.9833 7.74768 46.0719 10.2696C52.1604 12.7916 57.3644 17.0624 61.0257 22.5419C64.687 28.0215 66.6412 34.4637 66.6412 41.0539C66.6304 49.8877 63.1164 58.3567 56.8699 64.6032C50.6234 70.8497 42.1545 74.3637 33.3206 74.3745ZM33.3206 8.72321C26.9248 8.72321 20.6727 10.6199 15.3548 14.1733C10.037 17.7267 5.89236 22.7773 3.44506 28.6864C0.997756 34.5955 0.357726 41.0975 1.60591 47.3704C2.85409 53.6432 5.93442 59.405 10.4573 63.9271C14.9803 68.4492 20.7426 71.5285 27.0157 72.7755C33.2887 74.0226 39.7907 73.3814 45.6993 70.933C51.6079 68.4847 56.6578 64.3391 60.2103 59.0206C63.7627 53.7022 65.6583 47.4497 65.6571 41.0539C65.6479 32.4811 62.2378 24.2621 56.1754 18.2008C50.113 12.1395 41.8934 8.73092 33.3206 8.72321Z" fill="#263238"/>
<path d="M33.6758 18.2617C33.5487 17.2187 33.5058 16.1671 33.5477 15.1171C33.5056 14.0672 33.5484 13.0156 33.6758 11.9726C33.8033 13.0156 33.8461 14.0672 33.804 15.1171C33.8459 16.1671 33.803 17.2187 33.6758 18.2617Z" fill="#263238"/>
<path d="M16.7011 24.4634C15.948 23.8719 15.2502 23.2131 14.6164 22.4952C13.9218 21.8359 13.2866 21.1169 12.718 20.3464C13.4711 20.938 14.1689 21.5968 14.8027 22.3147C15.4972 22.9739 16.1325 23.6929 16.7011 24.4634Z" fill="#263238"/>
<path d="M12.357 41.741C11.045 41.8683 9.72623 41.9111 8.40879 41.8691C7.09135 41.9111 5.77258 41.8683 4.46063 41.741C5.77258 41.6137 7.09135 41.5709 8.40879 41.6129C9.72623 41.5709 11.045 41.6137 12.357 41.741Z" fill="#263238"/>
<path d="M16.6254 57.8539C16.1221 58.5503 15.5632 59.2046 14.9541 59.8105C14.4065 60.477 13.7809 61.0752 13.0907 61.5924C13.5993 60.8987 14.1599 60.2446 14.7678 59.6358C15.3123 58.9686 15.9361 58.3702 16.6254 57.8539Z" fill="#263238"/>
<path d="M53.9 61.2605C58.6895 56.4391 61.6415 50.0941 62.2447 43.3249C63.2696 31.0961 57.9355 24.6906 53.9873 20.3872L50.5574 23.6715C54.0514 27.4158 59.467 34.8579 57.9995 43.686C57.0844 49.1784 54.6242 54.2966 50.9068 58.4421L53.9 61.2605Z" fill="#53B51E"/>
<path d="M32.5228 45.2583C31.7768 45.1112 31.0912 44.7462 30.5527 44.2094C30.0142 43.6725 29.647 42.988 29.4977 42.2425C29.3483 41.4969 29.4234 40.7238 29.7135 40.021C30.0037 39.3181 30.4958 38.7172 31.1275 38.2941C31.7593 37.871 32.5024 37.6448 33.2628 37.6441C34.0232 37.6435 34.7666 37.8684 35.3992 38.2904C36.0317 38.7124 36.5248 39.3125 36.8161 40.0149C37.1075 40.7172 37.1839 41.4902 37.0359 42.236C36.9384 42.731 36.7442 43.2018 36.4645 43.6217C36.1849 44.0416 35.8252 44.4022 35.406 44.6829C34.9868 44.9636 34.5164 45.1589 34.0217 45.2576C33.527 45.3564 33.0176 45.3566 32.5228 45.2583Z" fill="#263238"/>
<path d="M46.9412 50.5632L24.6615 33.4953L22.5418 36.7272L46.9412 50.5632Z" fill="#263238"/>
<path d="M62.3553 40.7802C62.3553 40.7802 62.3553 40.6229 62.3553 40.3085C62.3553 39.994 62.3553 39.534 62.2913 38.9284C62.0121 34.7894 60.8489 30.7583 58.8801 27.1069C56.9112 23.4554 54.1824 20.2685 50.8777 17.7609C47.2904 15.0365 43.1172 13.1862 38.6897 12.3569C36.2331 11.8998 33.7277 11.7628 31.2359 11.9493C29.9326 12.0467 28.637 12.2296 27.3576 12.4967C26.0459 12.7781 24.7543 13.1458 23.491 13.5973C17.9136 15.6287 13.0961 19.3267 9.69199 24.1894C6.2879 29.0522 4.462 34.8443 4.462 40.7802C4.462 46.716 6.2879 52.5082 9.69199 57.3709C13.0961 62.2337 17.9136 65.9316 23.491 67.9631C24.755 68.4138 26.0465 68.7833 27.3576 69.0695C31.0927 69.8467 34.9431 69.8922 38.6955 69.2034C43.1208 68.3727 47.2918 66.5224 50.8777 63.7995C54.1813 61.2908 56.9093 58.1036 58.878 54.4524C60.8468 50.8012 62.0106 46.7706 62.2913 42.632C62.3437 42.0496 62.332 41.5605 62.3553 41.2519C62.3786 40.9432 62.3553 40.7802 62.3553 40.7802C62.3553 40.7802 62.3553 41.4207 62.3146 42.632C62.2172 44.3997 61.954 46.1544 61.5284 47.8729C60.8592 50.6073 59.7918 53.2286 58.3606 55.6527C56.445 58.8586 53.9349 61.6691 50.9651 63.9334C47.36 66.6847 43.1628 68.557 38.7071 69.4014C36.2321 69.8682 33.7067 70.0091 31.1952 69.8207C29.8815 69.7335 28.5757 69.5525 27.2878 69.2791C25.9655 68.9993 24.6639 68.6296 23.392 68.1727C17.7629 66.131 12.8992 62.4053 9.46191 57.5022C6.02466 52.5991 4.18069 46.7564 4.18069 40.7685C4.18069 34.7806 6.02466 28.938 9.46191 24.0348C12.8992 19.1317 17.7629 15.4061 23.392 13.3643C24.6639 12.9074 25.9655 12.5378 27.2878 12.2579C28.5766 11.9898 29.882 11.8089 31.1952 11.7164C33.707 11.5298 36.2324 11.6727 38.7071 12.1415C41.0194 12.5674 43.2692 13.2814 45.4039 14.2669C47.3784 15.1642 49.2442 16.2837 50.9651 17.6037C53.9372 19.8748 56.4474 22.6934 58.3606 25.9076C59.7862 28.3221 60.8533 30.931 61.5284 33.6525C61.9536 35.3711 62.2168 37.1257 62.3146 38.8934C62.3786 40.1396 62.3553 40.7802 62.3553 40.7802Z" fill="#263238"/>
<path d="M62.367 40.5938C61.3399 40.7246 60.3034 40.7674 59.269 40.7219C58.2327 40.7673 57.1943 40.7244 56.1652 40.5938C57.1946 40.4667 58.2327 40.4238 59.269 40.4657C60.3034 40.4237 61.3396 40.4666 62.367 40.5938Z" fill="#263238"/>
<path d="M53.9058 61.2605C53.0328 60.6043 52.2148 59.8778 51.46 59.0884C50.6446 58.3607 49.8854 57.5724 49.189 56.73C50.062 57.3863 50.8799 58.1127 51.6347 58.9021C52.4518 59.6281 53.2111 60.4166 53.9058 61.2605Z" fill="#263238"/>
<path d="M53.9873 20.3872C54.0689 20.4629 53.1138 21.4412 51.8851 22.5651C51.1665 23.2761 50.3871 23.9231 49.5558 24.4984C50.2149 23.7324 50.9355 23.0215 51.7104 22.3729C52.3277 21.7906 52.8751 21.3072 53.306 20.952C53.5228 20.7517 53.7503 20.5631 53.9873 20.3872Z" fill="#263238"/>
<path d="M48.7988 51.7046C48.31 52.219 47.6935 52.5947 47.0122 52.7931C46.3309 52.9916 45.6091 53.0058 44.9205 52.8343C45.6006 52.7935 46.2764 52.6981 46.9412 52.549C47.5816 52.3167 48.2027 52.0343 48.7988 51.7046Z" fill="#263238"/>
<path d="M49.8062 52.6013C49.6138 52.8554 49.3697 53.0658 49.09 53.2186C48.4451 53.6318 47.7246 53.9128 46.9703 54.0455C46.2151 54.176 45.4418 54.1582 44.6934 53.9931C44.3796 53.9444 44.0798 53.8293 43.8141 53.6554C44.8295 53.9255 45.8916 53.9711 46.9264 53.7891C47.9612 53.6071 48.944 53.2017 49.8062 52.6013Z" fill="#263238"/>
<path d="M26.1289 31.1485C25.4613 31.0204 24.7822 30.9619 24.1024 30.9738C23.4284 31.0728 22.7667 31.2427 22.1284 31.4805C22.671 31.0115 23.362 30.7496 24.0791 30.7409C24.789 30.6338 25.514 30.7779 26.1289 31.1485Z" fill="#263238"/>
<path d="M26.5715 30.2867C25.6111 30.1149 24.6343 30.0523 23.6599 30.1003C22.6957 30.2377 21.7502 30.4839 20.8414 30.8341C21.6601 30.2451 22.6297 29.9017 23.6366 29.8441C24.6371 29.7058 25.6563 29.8594 26.5715 30.2867Z" fill="#263238"/>
<path d="M73.6349 229.628L74.5841 223.7L63.9683 221.953L62.4659 230.804L63.1123 230.956C66.0239 231.614 77.9383 233.902 79.9997 233.605C82.2999 233.256 73.6349 229.628 73.6349 229.628Z" fill="#53B51E"/>
<path d="M80.3375 233.081C80.3375 233.18 76.3369 232.627 71.4338 231.841C66.5306 231.055 62.5708 230.338 62.5883 230.239C62.6057 230.14 66.5888 230.694 71.492 231.48C76.3952 232.266 80.355 232.982 80.3375 233.081Z" fill="#263238"/>
<path d="M73.6292 230.868C73.5476 230.81 73.6699 230.507 73.9494 230.234C74.2289 229.96 74.5318 229.843 74.59 229.925C74.6482 230.006 74.4619 230.245 74.2057 230.507C73.9494 230.769 73.7107 230.932 73.6292 230.868Z" fill="#263238"/>
<path d="M74.2406 231.369C74.1532 231.317 74.2406 230.973 74.5259 230.641C74.8113 230.309 75.1083 230.123 75.1723 230.199C75.2364 230.274 75.0617 230.554 74.8113 230.868C74.5609 231.183 74.3338 231.422 74.2406 231.369Z" fill="#263238"/>
<path d="M65.7969 230.711C65.7503 230.711 65.6163 230.554 65.4242 230.257C65.2007 229.871 64.9393 229.508 64.6438 229.174C64.3536 228.854 63.9839 228.617 63.5724 228.487C63.2579 228.393 63.0366 228.411 63.0308 228.353C63.025 228.294 63.2405 228.195 63.6131 228.236C64.109 228.309 64.564 228.552 64.9001 228.923C65.221 229.28 65.4737 229.693 65.6454 230.14C65.791 230.478 65.8376 230.694 65.7969 230.711Z" fill="#263238"/>
<path d="M73.8387 229.762C73.8737 229.849 73.664 230.03 73.3379 230.088C73.0118 230.146 72.7556 230.088 72.7556 229.972C72.7556 229.855 72.9885 229.791 73.2681 229.733C73.5476 229.675 73.798 229.663 73.8387 229.762Z" fill="#263238"/>
<path d="M73.763 229.156C73.763 229.261 73.4602 229.302 73.0992 229.249C72.7381 229.197 72.4703 229.075 72.5169 228.976C72.5635 228.877 72.8313 228.836 73.1749 228.888C73.5185 228.941 73.7689 229.057 73.763 229.156Z" fill="#263238"/>
<path d="M111.189 228.347L110.968 222.349L100.212 222.675L100.451 231.649H101.121C104.096 231.73 116.261 231.649 118.2 230.967C120.39 230.222 111.189 228.347 111.189 228.347Z" fill="#53B51E"/>
<path d="M118.433 230.432C118.433 230.536 114.421 230.764 109.46 230.95C104.498 231.136 100.474 231.194 100.468 231.095C100.463 230.996 104.486 230.764 109.448 230.583C114.409 230.403 118.427 230.333 118.433 230.432Z" fill="#263238"/>
<path d="M111.422 229.564C111.329 229.523 111.393 229.203 111.614 228.883C111.835 228.562 112.109 228.382 112.196 228.452C112.284 228.522 112.138 228.789 111.934 229.086C111.731 229.383 111.515 229.611 111.422 229.564Z" fill="#263238"/>
<path d="M112.121 229.937C112.028 229.908 112.063 229.546 112.261 229.168C112.459 228.789 112.726 228.551 112.808 228.586C112.889 228.621 112.767 228.952 112.587 229.308C112.406 229.663 112.22 229.972 112.121 229.937Z" fill="#263238"/>
<path d="M103.706 230.938C103.665 230.938 103.502 230.816 103.258 230.56C102.96 230.228 102.633 229.924 102.279 229.651C101.938 229.398 101.537 229.238 101.115 229.185C100.789 229.185 100.573 229.215 100.532 229.185C100.492 229.156 100.707 228.987 101.115 228.952C101.616 228.925 102.111 229.076 102.512 229.378C102.896 229.665 103.224 230.02 103.479 230.426C103.654 230.699 103.747 230.909 103.706 230.938Z" fill="#263238"/>
<path d="M111.41 228.44C111.469 228.522 111.294 228.737 110.991 228.859C110.688 228.982 110.409 228.952 110.409 228.859C110.409 228.766 110.601 228.632 110.869 228.522C111.137 228.411 111.352 228.353 111.41 228.44Z" fill="#263238"/>
<path d="M111.224 227.864C111.224 227.963 110.95 228.062 110.589 228.079C110.228 228.096 109.937 228.032 109.937 227.928C109.937 227.823 110.222 227.73 110.572 227.712C110.921 227.695 111.207 227.765 111.224 227.864Z" fill="#263238"/>
<path d="M125.77 79.0331L125.188 77.0765C124.981 75.9475 124.663 74.8415 124.239 73.7747C124.037 73.2366 123.746 72.7366 123.377 72.2956C122.944 71.7313 122.437 71.2279 121.869 70.799C121.287 70.4554 121.432 69.6344 122.014 69.5703C122.597 69.5063 124.163 70.4205 125.363 72.1617C126.562 73.9028 126.784 70.6243 126.889 69.4306C126.993 68.2368 127.471 64.5623 127.873 64.3178C128.455 63.9509 128.956 64.5099 128.828 65.6979C128.7 66.8858 128.554 70.4846 129.183 70.5253C129.812 70.5661 130.249 64.4808 130.249 64.4808C130.249 64.4808 130.132 63.1589 130.866 63.1822C132.182 63.223 131.233 69.646 131.128 70.2516C131.058 70.6767 131.739 70.7408 131.798 70.2866C131.856 69.8324 132.095 64.2013 133.434 64.2304C134.465 64.2304 132.706 69.5179 133.3 70.7291C133.894 71.9404 134.226 66.583 135.21 66.6529C135.571 66.6529 135.845 66.7402 135.21 69.7741C134.575 72.808 131.442 80.9781 131.442 80.9781L125.724 78.9341" fill="#FFBE9D"/>
<path d="M86.4286 77.4259L96.1068 78.1421C96.235 77.024 96.4271 72.6741 96.4271 72.6741C96.4271 72.6741 100.468 72.2956 100.76 68.295C101.051 64.2944 100.934 55.0646 100.934 55.0646C98.7191 53.9463 96.2456 53.4399 93.7692 53.5975C91.2927 53.7552 88.9034 54.5712 86.8479 55.9614L86.2248 56.3806L86.4286 77.4259Z" fill="#FFBE9D"/>
<path d="M99.5833 61.8895C99.4752 61.7783 99.4157 61.6287 99.4179 61.4736C99.4201 61.3185 99.4838 61.1707 99.595 61.0626C99.7062 60.9545 99.8558 60.8949 100.011 60.8971C100.166 60.8993 100.314 60.963 100.422 61.0742C100.475 61.1293 100.518 61.1943 100.546 61.2657C100.574 61.337 100.588 61.4133 100.587 61.4901C100.586 61.5668 100.57 61.6427 100.54 61.7132C100.509 61.7837 100.465 61.8476 100.41 61.9011C100.355 61.9546 100.29 61.9968 100.219 62.0252C100.147 62.0536 100.071 62.0676 99.9944 62.0665C99.9176 62.0655 99.8418 62.0493 99.7712 62.0189C99.7007 61.9885 99.6369 61.9445 99.5833 61.8895Z" fill="#263238"/>
<path d="M100.614 61.0218C100.544 61.0858 100.172 60.7597 99.6183 60.7248C99.0651 60.6899 98.6516 60.9461 98.5934 60.8704C98.5352 60.7947 98.64 60.719 98.8205 60.5967C99.0661 60.4394 99.3568 60.3677 99.6474 60.3929C99.9372 60.412 100.213 60.5243 100.434 60.7132C100.591 60.8762 100.643 61.0218 100.614 61.0218Z" fill="#263238"/>
<path d="M94.2318 61.1208C94.3584 61.2096 94.4446 61.3451 94.4714 61.4974C94.4981 61.6497 94.4633 61.8065 94.3745 61.9331C94.2857 62.0598 94.1502 62.1459 93.9978 62.1727C93.8455 62.1994 93.6888 62.1646 93.5621 62.0758C93.4991 62.0317 93.4455 61.9755 93.4044 61.9105C93.3632 61.8456 93.3353 61.7731 93.3223 61.6973C93.3093 61.6215 93.3115 61.5439 93.3287 61.4689C93.3458 61.3939 93.3777 61.3231 93.4224 61.2605C93.5114 61.135 93.6466 61.0498 93.7982 61.0236C93.9499 60.9974 94.1058 61.0324 94.2318 61.1208Z" fill="#263238"/>
<path d="M94.5928 61.1499C94.5288 61.214 94.1561 60.8879 93.6029 60.8529C93.0497 60.818 92.6362 61.0742 92.578 60.9985C92.5198 60.9228 92.6187 60.8471 92.8051 60.7248C93.0482 60.5667 93.3374 60.4949 93.6262 60.521C93.9162 60.5389 94.1924 60.6514 94.4123 60.8413C94.5754 61.0218 94.6278 61.1208 94.5928 61.1499Z" fill="#263238"/>
<path d="M96.5261 65.8318C96.8181 65.7404 97.1229 65.6971 97.4287 65.7037C97.5743 65.7037 97.6908 65.6687 97.7083 65.593C97.7223 65.4471 97.6961 65.3001 97.6325 65.1679C97.5103 64.7952 97.3938 64.4167 97.2657 64.0033C96.9105 63.0316 96.653 62.027 96.497 61.0043C96.9447 61.9378 97.2996 62.9131 97.5568 63.9159C97.6733 64.3119 97.7839 64.6962 97.9004 65.0806C97.9756 65.2654 97.9899 65.4694 97.9412 65.6629C97.9169 65.7165 97.8806 65.7638 97.8352 65.8011C97.7898 65.8385 97.7364 65.8649 97.6791 65.8784C97.598 65.8892 97.5157 65.8892 97.4346 65.8784C97.1312 65.9105 96.8246 65.8948 96.5261 65.8318Z" fill="#263238"/>
<path d="M94.6976 66.3326C94.1444 65.9541 96.2292 67.2701 97.353 67.2818C97.1483 67.5596 96.8555 67.7597 96.5223 67.8496C96.1892 67.9395 95.8354 67.9139 95.5187 67.7768C94.3482 67.2643 94.6976 66.3326 94.6976 66.3326Z" fill="white"/>
<path d="M96.4329 72.6159C94.5838 72.5345 92.8003 71.9063 91.3085 70.8107C91.3085 70.8107 92.3625 73.7689 96.3805 73.6524L96.4329 72.6159Z" fill="#EB996E"/>
<path d="M86.3122 60.4395L86.7955 63.3103L88.5774 63.2754L88.4609 57.2949C88.4609 57.2949 95.5304 57.8423 96.3398 55.0122C96.3398 55.0122 98.4187 58.1393 100.998 58.1276C100.998 58.1276 103.258 57.8947 101.109 54.7443C97.7898 49.8994 85.9686 53.7951 85.9686 53.7951C85.6705 54.6802 85.5267 55.6099 85.5435 56.5437C85.4969 59.6417 86.3122 60.4395 86.3122 60.4395Z" fill="#263238"/>
<path d="M85.3397 57.5278L101.062 54.4066C101.062 54.4066 99.9444 48.1058 91.4482 49.9401C83.2025 51.7395 85.3397 57.5278 85.3397 57.5278Z" fill="#53B51E"/>
<path d="M85.3397 57.5278C85.5609 57.4871 104.591 57.9355 105.948 55.3034C106.595 54.0455 100.963 54.0106 100.963 54.0106L101.092 54.4066L85.3397 57.5278Z" fill="#53B51E"/>
<path opacity="0.2" d="M85.3397 57.5278C85.5609 57.4871 104.591 57.9355 105.948 55.3034C106.595 54.0455 100.963 54.0106 100.963 54.0106L101.092 54.4066L85.3397 57.5278Z" fill="black"/>
<path d="M86.9935 59.9328C86.9061 59.8979 84.0236 59.5252 84.2973 62.926C84.571 66.3268 87.9135 64.9292 87.9135 64.8302C87.9135 64.7312 86.9935 59.9328 86.9935 59.9328Z" fill="#FFBE9D"/>
<path d="M86.778 63.718C86.778 63.718 86.7198 63.7645 86.6208 63.8228C86.4845 63.8943 86.3253 63.909 86.1782 63.8635C85.948 63.7423 85.7543 63.5618 85.6171 63.3407C85.4799 63.1196 85.4042 62.8658 85.3979 62.6057C85.364 62.3146 85.3978 62.0197 85.4969 61.7439C85.5185 61.6341 85.5671 61.5313 85.6383 61.4449C85.7094 61.3585 85.8009 61.2912 85.9045 61.2489C85.9709 61.2259 86.0432 61.2266 86.1091 61.2511C86.175 61.2755 86.2303 61.3221 86.2656 61.3828C86.318 61.476 86.3063 61.5459 86.3238 61.5517C86.3413 61.5575 86.3937 61.4876 86.3238 61.3479C86.2975 61.265 86.2442 61.1932 86.1724 61.1441C86.0733 61.0828 85.9545 61.062 85.8405 61.0858C85.702 61.1256 85.576 61.1999 85.4741 61.3018C85.3722 61.4036 85.2979 61.5297 85.2582 61.6682C85.1399 61.9758 85.096 62.307 85.13 62.6348C85.1377 62.9396 85.2352 63.2354 85.4103 63.4851C85.5854 63.7347 85.8302 63.9271 86.1142 64.0382C86.2078 64.0564 86.3044 64.0539 86.3969 64.0308C86.4895 64.0076 86.5759 63.9644 86.6499 63.9043C86.778 63.8053 86.7897 63.7238 86.778 63.718Z" fill="#EB996E"/>
<path d="M96.2692 52.6973L94.342 52.7343L94.379 54.6615L96.3062 54.6244L96.2692 52.6973Z" fill="#263238"/>
<path d="M96.2499 51.6518L95.2834 51.6705L95.3021 52.637L96.2686 52.6183L96.2499 51.6518Z" fill="#263238"/>
<path d="M125.06 76.5291C125.06 76.5291 122.084 95.4663 119.988 95.5653C117.595 95.6817 110.234 85.2406 110.234 85.2406C105.523 77.9732 99.3096 76.7969 97.0444 76.6164V75.7196L85.9104 74.8054C85.9104 74.8054 85.9104 75.7662 85.9104 76.6048H80.9781C80.9781 76.6048 72.15 76.1971 70.8223 88.0591L77.1755 93.0787L79.7785 102.763C80.5704 105.721 79.3592 109.494 78.0315 116.121L77.2337 115.935L76.896 122.614C76.8494 122.929 76.8028 123.249 76.762 123.569H76.8494L74.1591 176.904L60.4045 228.562L75.8886 229.145L90.1671 178.744C90.1671 178.744 91.4075 138.448 92.6653 138.424C94.7792 138.384 96.1302 228.067 96.9396 227.864C97.749 227.66 113.652 227.823 113.652 227.823C113.652 227.823 108.388 123.33 108.44 123.33L107.078 103.531L106.56 97.813C109.582 102.064 115.294 108.702 121.397 108.586C131.337 108.394 132.735 77.5773 132.735 77.5773L125.06 76.5291Z" fill="#455A64"/>
<path d="M92.0946 138.023C92.4428 137.463 92.7503 136.879 93.0147 136.276C93.5426 134.794 93.7971 133.23 93.7659 131.658C93.7659 129.841 93.7659 128.205 93.7659 126.9C93.7355 126.243 93.7608 125.585 93.8416 124.932C93.9354 125.584 93.9821 126.242 93.9813 126.9C94.0163 128.117 94.092 129.812 94.0745 131.664C94.0662 132.544 93.9884 133.422 93.8416 134.29C93.7187 135.004 93.5095 135.7 93.2185 136.363C93.0172 136.807 92.7672 137.226 92.4731 137.615C92.2402 137.889 92.1354 138.04 92.0946 138.023Z" fill="#263238"/>
<path d="M82.958 129.561C83.0147 129.738 83.0423 129.923 83.0395 130.109C83.0686 130.464 83.1035 130.971 83.121 131.611C83.2105 133.288 82.8761 134.96 82.1485 136.474C81.7187 137.308 81.0809 138.018 80.2967 138.535C79.6495 138.944 78.9068 139.176 78.1421 139.21C77.6286 139.237 77.1156 139.149 76.6397 138.954C76.4616 138.892 76.2988 138.793 76.1622 138.663C76.7848 138.921 77.4574 139.037 78.1305 139.001C78.8496 138.934 79.5414 138.692 80.1453 138.296C80.8818 137.795 81.4821 137.119 81.8923 136.328C82.5926 134.856 82.9433 133.241 82.9172 131.611C82.8955 130.928 82.9091 130.243 82.958 129.561Z" fill="#263238"/>
<path d="M109.541 138.838C109.541 138.838 109.448 139.007 109.163 139.199C108.745 139.455 108.26 139.581 107.771 139.56C107.041 139.53 106.34 139.269 105.768 138.815C105.08 138.278 104.489 137.628 104.021 136.893C103.141 135.581 102.588 134.077 102.408 132.508C102.356 132.034 102.343 131.557 102.367 131.081C102.363 130.907 102.391 130.733 102.448 130.569C102.501 130.569 102.448 131.308 102.623 132.479C102.857 133.997 103.419 135.446 104.271 136.724C104.722 137.433 105.285 138.064 105.937 138.593C106.459 139.026 107.101 139.288 107.777 139.344C108.234 139.381 108.692 139.294 109.104 139.094C109.39 138.948 109.524 138.815 109.541 138.838Z" fill="#263238"/>
<path d="M76.599 225.715C76.599 225.802 73.1633 225.744 68.9356 225.592C64.7079 225.441 61.2722 225.237 61.2722 225.162C61.2722 225.086 64.7079 225.132 68.9414 225.29C73.1749 225.447 76.6048 225.633 76.599 225.715Z" fill="#263238"/>
<path d="M113.099 223.385C112.888 223.443 112.671 223.472 112.453 223.473L110.706 223.607C109.215 223.7 107.159 223.811 104.882 223.915C102.606 224.02 100.544 224.096 99.0592 224.142L97.3123 224.172C97.0945 224.189 96.8754 224.179 96.66 224.142C96.8714 224.088 97.0883 224.059 97.3064 224.055L99.0534 223.927C100.544 223.828 102.6 223.717 104.877 223.613C107.154 223.508 109.215 223.432 110.7 223.391L112.447 223.356C112.665 223.343 112.883 223.353 113.099 223.385Z" fill="#263238"/>
<path d="M84.5302 139.257C84.5392 139.333 84.5392 139.409 84.5302 139.484V140.154C84.5302 140.736 84.5011 141.621 84.4836 142.728C84.4312 144.958 84.3322 148.19 84.1692 152.185C84.0061 156.179 83.7849 160.92 83.4704 166.201C83.3132 168.839 83.1385 171.605 82.8881 174.47C82.7658 175.903 82.6551 177.382 82.4047 178.838C82.1543 180.293 81.8224 181.778 81.5196 183.275C78.8642 195.184 75.8827 205.817 73.5534 213.463C72.3888 217.289 71.3406 220.346 70.6069 222.46L69.7159 224.87C69.6111 225.132 69.5354 225.342 69.4713 225.493C69.452 225.567 69.4226 225.638 69.384 225.703C69.3942 225.629 69.4138 225.557 69.4422 225.488C69.4946 225.33 69.5645 225.121 69.6577 224.853L70.4962 222.419C71.195 220.299 72.2432 217.23 73.3496 213.404C75.6207 205.747 78.5905 195.102 81.2226 183.205C81.5429 181.72 81.8632 180.247 82.1078 178.791C82.3523 177.335 82.4688 175.879 82.5911 174.447C82.8298 171.582 83.0104 168.816 83.1734 166.184C83.4995 160.943 83.7557 156.162 83.9363 152.173C84.1168 148.184 84.2507 144.97 84.3497 142.722C84.3905 141.615 84.4254 140.754 84.4487 140.148C84.4487 139.869 84.4604 139.647 84.4836 139.484C84.4953 139.408 84.5108 139.332 84.5302 139.257Z" fill="#263238"/>
<path d="M105.902 223.776C105.883 223.707 105.873 223.637 105.872 223.566C105.872 223.415 105.872 223.211 105.826 222.949C105.785 222.366 105.733 221.592 105.663 220.573C105.54 218.494 105.366 215.512 105.145 211.838C104.731 204.46 104.213 194.258 103.735 182.995C103.258 171.733 102.908 161.514 102.681 154.13C102.582 150.449 102.495 147.462 102.443 145.395C102.443 144.376 102.402 143.578 102.39 143.019V142.396C102.384 142.326 102.384 142.256 102.39 142.186C102.396 142.256 102.396 142.326 102.39 142.396C102.39 142.553 102.39 142.757 102.425 143.013C102.425 143.595 102.483 144.376 102.53 145.395C102.611 147.474 102.722 150.461 102.868 154.13C103.159 161.525 103.566 171.722 104.032 182.984C104.498 194.246 104.993 204.448 105.354 211.832C105.535 215.512 105.674 218.494 105.779 220.567C105.82 221.586 105.855 222.384 105.878 222.949C105.878 223.205 105.878 223.409 105.878 223.566C105.892 223.635 105.9 223.705 105.902 223.776Z" fill="#263238"/>
<path d="M93.1137 75.3936C93.1577 75.9148 93.1577 76.4388 93.1137 76.96C93.098 78.2672 92.9694 79.5707 92.7294 80.8558L92.6944 81.0479L92.5197 80.9548C92.1471 80.7626 91.7627 80.5588 91.3842 80.3317C89.7653 79.3883 88.3911 78.4042 87.372 77.7287C86.3529 77.0532 85.7298 76.6397 85.7473 76.6048C86.3609 76.8575 86.9464 77.1737 87.4943 77.5482C88.5425 78.1829 89.94 79.1379 91.5414 80.0696C91.9199 80.2909 92.2985 80.5005 92.6595 80.6927L92.444 80.7917C92.6892 79.5227 92.8487 78.2387 92.9215 76.9484C92.9437 76.4258 93.008 75.9058 93.1137 75.3936Z" fill="#263238"/>
<path d="M97.0735 76.6922C97.0015 77.182 96.8964 77.6664 96.7591 78.1421C96.6484 78.5847 96.532 79.1204 96.3398 79.7086C96.2412 80.0169 96.1226 80.3184 95.9846 80.6112C95.94 80.7129 95.8673 80.7998 95.7749 80.8616C95.7118 80.9043 95.6354 80.9231 95.5596 80.9146C95.4838 80.906 95.4136 80.8707 95.3615 80.815C95.248 80.6588 95.1596 80.486 95.0994 80.3026C94.5579 79.0098 94.0804 77.8393 93.7543 76.9833C93.5543 76.5327 93.402 76.0623 93.3 75.5799C93.5694 75.9986 93.7958 76.4434 93.9755 76.9076C94.3541 77.7462 94.8607 78.905 95.4022 80.1977C95.4542 80.3427 95.5185 80.483 95.5944 80.617C95.6235 80.617 95.5944 80.617 95.641 80.617C95.6836 80.5826 95.7175 80.5388 95.74 80.4889C95.8766 80.2067 95.9971 79.917 96.101 79.6212C96.299 79.0389 96.4388 78.5323 96.5727 78.0897C96.6771 77.6038 96.8455 77.1338 97.0735 76.6922Z" fill="#263238"/>
<path d="M94.983 116.482C94.9516 116.345 94.936 116.204 94.9364 116.063C94.9364 115.76 94.8898 115.364 94.8549 114.869C94.8025 113.798 94.7209 112.301 94.6278 110.467C94.4589 106.723 94.2318 101.604 93.9756 95.9496C93.7193 90.2952 93.5621 85.1766 93.3932 81.4264C93.335 79.5921 93.2942 78.1014 93.2593 77.0241C93.2593 76.5291 93.2593 76.1331 93.2593 75.8594C93.2505 75.7198 93.2505 75.5798 93.2593 75.4401C93.2917 75.5757 93.3092 75.7143 93.3117 75.8536C93.3117 76.1564 93.3583 76.5524 93.3874 77.0474C93.4456 78.1247 93.5213 79.6154 93.6203 81.4497C93.7892 85.1941 94.0163 90.3127 94.2667 95.9671C94.5171 101.621 94.686 106.746 94.849 110.49C94.9073 112.325 94.9539 113.821 94.9888 114.893C94.9888 115.388 94.9888 115.789 94.9888 116.092C95.0011 116.222 94.9992 116.353 94.983 116.482Z" fill="#263238"/>
<path d="M102.08 87.456L96.7292 87.5596L96.7506 88.6658L102.101 88.5622L102.08 87.456Z" fill="white"/>
<path d="M107.165 105.535C107.078 105.535 106.74 101.493 106.408 96.4912C106.076 91.489 105.872 87.4418 105.954 87.436C106.036 87.4302 106.373 91.4774 106.711 96.4737C107.049 101.47 107.276 105.529 107.165 105.535Z" fill="#263238"/>
<path d="M132.56 81.4556C131.204 81.2997 129.861 81.0448 128.542 80.6927C127.203 80.4348 125.883 80.0806 124.594 79.6329C125.95 79.7887 127.293 80.0437 128.612 80.3957C129.953 80.6504 131.273 81.0046 132.56 81.4556Z" fill="#263238"/>
<path d="M126.219 77.8743C126.327 77.872 126.434 77.9019 126.525 77.9604C126.617 78.0189 126.689 78.1032 126.732 78.2027C126.776 78.3021 126.788 78.4122 126.769 78.519C126.75 78.6258 126.699 78.7244 126.624 78.8023C126.548 78.8803 126.451 78.934 126.345 78.9567C126.239 78.9795 126.129 78.9702 126.028 78.93C125.927 78.8898 125.84 78.8206 125.779 78.7311C125.718 78.6417 125.684 78.536 125.683 78.4275C125.682 78.3559 125.694 78.2847 125.72 78.218C125.747 78.1513 125.786 78.0905 125.836 78.039C125.885 77.9876 125.945 77.9465 126.011 77.9182C126.076 77.89 126.147 77.875 126.219 77.8743Z" fill="#263238"/>
<path d="M102.024 84.9872L100.097 85.0242L100.134 86.9514L102.061 86.9144L102.024 84.9872Z" fill="#53B51E"/>
<path d="M101.999 83.9348L101.032 83.9535L101.051 84.92L102.017 84.9013L101.999 83.9348Z" fill="#53B51E"/>
<path d="M130.877 94.8665L130.086 125.963L81.2925 125.712L81.4498 94.2026L130.877 94.8665Z" fill="#53B51E"/>
<path d="M101.895 125.782C101.814 125.782 101.895 118.835 102.14 110.275C102.384 101.715 102.617 94.7966 102.681 94.7966C102.745 94.7966 102.681 101.738 102.443 110.304C102.204 118.87 101.977 125.782 101.895 125.782Z" fill="#263238"/>
<path d="M81.2925 125.712C81.3439 125.596 81.4083 125.487 81.4847 125.386L82.067 124.472L84.3439 121.158L91.9491 110.281C94.9247 106.035 97.6034 102.186 99.5193 99.3795C100.48 97.9761 101.266 96.8347 101.767 96.0428L102.349 95.1285C102.426 95.008 102.516 94.8967 102.617 94.7966C102.576 94.9171 102.517 95.0308 102.443 95.1344L101.895 96.0835C101.4 96.893 100.661 98.0576 99.7289 99.4727C97.8597 102.314 95.2043 106.187 92.2344 110.432C89.2646 114.677 86.5335 118.497 84.5536 121.257L82.2243 124.518C81.9564 124.879 81.7351 125.171 81.5721 125.398C81.4936 125.515 81.3996 125.621 81.2925 125.712Z" fill="#263238"/>
<path d="M101.412 126.027C101.342 126.073 96.8464 119.068 91.3783 110.38C85.9103 101.691 81.5254 94.6103 81.6011 94.5695C81.6768 94.5287 86.1607 101.528 91.6346 110.217C97.1084 118.905 101.482 125.986 101.412 126.027Z" fill="#263238"/>
<path d="M107.578 121.439L115.41 121.674L115.459 120.067L107.626 119.832L107.578 121.439Z" fill="#263238"/>
<path d="M107.381 119.394C108.652 119.241 109.933 119.193 111.212 119.248C112.492 119.196 113.773 119.248 115.044 119.406C113.772 119.552 112.491 119.6 111.212 119.551C109.933 119.597 108.652 119.544 107.381 119.394Z" fill="#263238"/>
<path d="M121.007 94.6161L120.704 106.624L119.027 105.267L116.82 106.525L117.129 94.5229L121.007 94.6161Z" fill="#263238"/>
<path d="M80.4889 91.4482C80.4889 91.4482 78.1246 107.951 79.2427 108.918C85.4386 114.13 94.0512 116.861 97.1317 117.723C97.5801 117.612 98.11 117.472 98.7098 117.28C99.2334 117.114 99.7241 116.858 100.16 116.523C100.72 116.132 101.224 115.666 101.656 115.137C101.723 115.028 101.822 114.942 101.939 114.89C102.056 114.837 102.187 114.822 102.313 114.845C102.439 114.869 102.555 114.93 102.645 115.02C102.736 115.111 102.797 115.227 102.821 115.353C102.85 115.935 101.936 117.391 100.218 118.456C100.218 118.456 104.166 124.81 105.424 125.38C106.682 125.951 110.286 127.576 109.675 127.89C109.064 128.205 104.684 126.923 104.684 126.923L95.7982 124.548C95.7982 124.548 66.3966 119.941 68.3591 106.455C69.5586 98.1916 70.8689 90.732 71.3406 88.8569L80.4889 91.4482Z" fill="#FFBE9D"/>
<path d="M70.834 88.0649L68.1961 106.07C67.6137 111.62 71.2998 116.017 76.2962 118.497C83.9013 122.265 95.1926 124.949 95.0994 124.932C95.0063 124.914 95.8623 116.925 95.8623 116.925C95.8623 116.925 80.0347 110.071 79.5572 107.124C79.0797 104.178 81.5662 91.8617 81.5662 91.8617L70.834 88.0649Z" fill="#455A64"/>
<path d="M95.0995 124.932C95.0917 124.886 95.0917 124.838 95.0995 124.792C95.0995 124.682 95.0995 124.542 95.0995 124.373C95.1286 123.983 95.1693 123.447 95.2217 122.771C95.344 121.356 95.5187 119.353 95.7342 116.89L95.7983 116.995L87.832 113.14L85.5028 112.016C84.7283 111.603 83.9538 111.154 83.1735 110.659C82.3904 110.157 81.6397 109.607 80.9257 109.011C80.5646 108.708 80.2094 108.394 79.8658 108.056C79.6781 107.892 79.5221 107.695 79.4058 107.474C79.3478 107.359 79.3047 107.238 79.2777 107.113C79.2416 106.991 79.2144 106.866 79.1962 106.74C78.94 104.778 79.4699 102.914 79.7377 101.144C80.0056 99.3737 80.3201 97.65 80.6287 96.0079C81.211 92.741 81.7118 89.8003 82.1486 87.3196C82.3829 86.2198 82.5174 85.101 82.5504 83.977C82.5586 83.1305 82.3838 82.2923 82.0379 81.5196C81.814 81.0341 81.4975 80.597 81.1062 80.2327C80.8325 79.9823 80.6636 79.8891 80.6695 79.8716C80.8421 79.9544 81.0027 80.0602 81.147 80.1861C81.5653 80.5384 81.9046 80.9749 82.1427 81.4672C82.521 82.2481 82.7199 83.1036 82.7251 83.9712C82.7115 85.1078 82.5906 86.2406 82.364 87.3545C81.9506 89.841 81.4556 92.7876 80.9082 96.0603L80.0347 101.202C79.959 101.645 79.8833 102.099 79.8018 102.553C79.7203 103.007 79.6387 103.45 79.5747 103.91C79.4234 104.83 79.3999 105.767 79.5048 106.693C79.5191 106.808 79.5425 106.921 79.5747 107.031C79.5993 107.14 79.6364 107.246 79.6853 107.346C79.7816 107.545 79.9185 107.721 80.0871 107.864C80.4191 108.196 80.7685 108.505 81.1237 108.807C81.8285 109.392 82.5674 109.935 83.3365 110.432C84.0935 110.927 84.8622 111.375 85.625 111.783L87.9194 112.913L95.8448 116.826L95.9147 116.861V116.925C95.6585 119.388 95.4488 121.391 95.3324 122.801C95.2567 123.476 95.1985 124.006 95.1577 124.396C95.1577 124.565 95.1169 124.699 95.0995 124.81C95.082 124.92 95.1053 124.938 95.0995 124.932Z" fill="#263238"/>
<path d="M93.632 115.795C93.6534 116.207 93.6221 116.62 93.5388 117.024C93.4398 117.781 93.2825 118.817 93.0729 119.936C92.8633 121.054 92.6245 122.102 92.4265 122.847C92.3453 123.25 92.2142 123.641 92.0364 124.012C91.9548 124.012 92.3508 122.16 92.7759 119.889C92.9784 118.508 93.2642 117.141 93.632 115.795Z" fill="#263238"/>
<path d="M95.0994 124.932C95.0067 124.932 94.9145 124.918 94.8257 124.891L94.0396 124.699L91.1746 123.954C88.7696 123.301 85.4154 122.451 81.8574 121.129C80.167 120.513 78.521 119.782 76.9309 118.94C75.6364 118.243 74.3981 117.447 73.2273 116.558C72.4422 115.953 71.7008 115.293 71.0087 114.584C70.7699 114.334 70.5836 114.13 70.4671 114.002C70.4 113.935 70.3431 113.858 70.2982 113.775C70.2982 113.775 70.5836 114.037 71.096 114.514C71.8118 115.187 72.5683 115.815 73.3612 116.395C74.5338 117.266 75.7721 118.045 77.0648 118.724C78.6481 119.549 80.2841 120.269 81.9622 120.879C85.526 122.189 88.8685 123.074 91.2794 123.791L94.1153 124.635L94.884 124.874C94.9571 124.888 95.0291 124.907 95.0994 124.932Z" fill="#263238"/>
<path d="M95.2974 117.723C95.2989 117.79 95.2872 117.857 95.2629 117.92C95.2386 117.982 95.2021 118.04 95.1556 118.089C95.1091 118.137 95.0534 118.176 94.9918 118.203C94.9302 118.231 94.8639 118.245 94.7966 118.247C94.6621 118.247 94.5329 118.195 94.4362 118.101C94.3395 118.008 94.2829 117.88 94.2783 117.746C94.2768 117.679 94.2885 117.612 94.3128 117.549C94.3372 117.486 94.3736 117.429 94.4201 117.38C94.4667 117.332 94.5223 117.293 94.5839 117.265C94.6455 117.238 94.7118 117.223 94.7791 117.222C94.9136 117.222 95.0429 117.274 95.1396 117.367C95.2363 117.461 95.2929 117.588 95.2974 117.723Z" fill="#263238"/>
<path d="M232.522 33.1343H168.257V231.643H232.522V33.1343Z" fill="#E0E0E0"/>
<path d="M210.423 34.6541V222.768L241.17 231.649L241.269 34.6541H210.423Z" fill="#455A64"/>
<path d="M214.214 125.852C214.272 127.325 213.707 128.542 212.95 128.577C212.193 128.612 211.529 127.413 211.471 125.963C211.413 124.513 211.978 123.272 212.735 123.243C213.492 123.214 214.156 124.379 214.214 125.852Z" fill="white"/>
<path d="M212.793 124.757L218.849 125.567C219.006 125.587 219.151 125.663 219.258 125.78C219.364 125.897 219.426 126.049 219.431 126.207C219.436 126.307 219.417 126.407 219.378 126.499C219.338 126.591 219.279 126.673 219.203 126.739C219.128 126.805 219.038 126.853 218.942 126.88C218.845 126.907 218.744 126.912 218.645 126.894L212.822 125.91L212.793 124.757Z" fill="white"/>
<path d="M160.751 26.1172V32.6102V34.6541V231.649H170.842V34.6541H230.065V231.649H241.17V34.6541V32.6102V26.1172H160.751Z" fill="#263238"/>
<path d="M170.842 34.6541H165.799V231.643H170.842V34.6541Z" fill="#263238"/>
<path opacity="0.5" d="M170.842 34.6541H165.799V231.643H170.842V34.6541Z" fill="black"/>
<path d="M241.269 26.1172H236.226V231.649H241.269V26.1172Z" fill="#263238"/>
<path opacity="0.5" d="M241.269 26.1172H236.226V231.649H241.269V26.1172Z" fill="black"/>
<path d="M207.878 14.1214H191.305V17.8191H207.878V14.1214Z" fill="#455A64"/>
<path d="M201.502 65.5639C201.597 67.3559 202.265 69.07 203.408 70.4538C204.551 71.8375 206.107 72.8179 207.849 73.2506C209.648 73.6873 211.722 73.4835 213.148 74.6889C215.594 76.7678 214.161 81.0945 215.815 83.8489C216.829 85.5609 218.843 86.3995 219.985 88.0242C221.883 90.7203 220.608 94.8024 218.022 96.8115C215.437 98.8205 211.984 99.2048 208.746 99.1407C201.612 98.9544 194.304 96.6892 189.151 91.6346C186.728 89.2587 178.873 80.2268 182.442 67.2119" fill="#263238"/>
<path d="M175.74 84.7107C175.74 84.7107 163.26 95.5594 162.929 94.2376C161.182 87.0575 161.671 77.8859 161.956 74.3745C162.148 74.0775 162.375 73.7456 162.643 73.3787C162.948 72.9537 163.324 72.5852 163.755 72.2898C164.277 71.8965 164.849 71.5752 165.456 71.3347C165.583 71.3196 165.701 71.263 165.793 71.1737C165.885 71.0845 165.944 70.9676 165.963 70.841C165.981 70.7144 165.958 70.5853 165.896 70.4735C165.833 70.3617 165.736 70.2735 165.619 70.2225C165.118 70.0362 163.523 70.4496 162.043 71.6841C160.564 72.9187 161.17 69.9838 161.368 68.9123C161.566 67.8408 162.032 64.4866 161.746 64.1722C161.333 63.7063 160.751 64.079 160.582 65.1563C160.413 66.2336 159.65 69.4305 159.085 69.3141C158.52 69.1976 159.627 63.7354 159.627 63.7354C159.627 63.7354 160.046 62.5999 159.4 62.4427C158.235 62.1573 157.501 68.0388 157.443 68.5978C157.402 68.988 156.785 68.8832 156.861 68.4639C156.936 68.0446 158.078 63.0424 156.896 62.7396C155.987 62.5067 156.243 67.5671 155.428 68.4872C154.613 69.4073 155.626 64.6205 154.747 64.4109C154.421 64.341 154.165 64.3352 153.984 67.1595C153.941 69.4333 154.022 71.7078 154.229 73.9727C153.454 81.7176 151.934 105.447 162.655 104.632C175.303 103.665 178.215 93.696 178.215 93.696L175.74 84.7107Z" fill="#B78876"/>
<path d="M185.709 81.1819C185.89 80.1803 185.569 75.9759 185.569 75.9759C185.569 75.9759 181.837 75.5042 181.679 71.7016C181.522 67.899 181.895 59.1292 181.895 59.1292L188.76 55.8333L196.144 61.7846L194.863 81.1178L185.709 81.1819Z" fill="#B78876"/>
<path d="M182.53 65.5348C182.53 65.629 182.557 65.7211 182.61 65.7995C182.662 65.8779 182.736 65.9391 182.823 65.9754C182.91 66.0117 183.006 66.0215 183.098 66.0035C183.191 65.9855 183.276 65.9406 183.343 65.8744C183.41 65.8082 183.456 65.7237 183.475 65.6315C183.494 65.5392 183.485 65.4434 183.45 65.3561C183.415 65.2687 183.354 65.1937 183.277 65.1406C183.199 65.0874 183.107 65.0584 183.013 65.0573C182.886 65.0573 182.764 65.1074 182.673 65.1968C182.583 65.2862 182.531 65.4076 182.53 65.5348Z" fill="#263238"/>
<path d="M182.081 64.9932C182.139 65.0573 182.495 64.7603 183.007 64.7428C183.52 64.7254 183.898 64.9816 183.95 64.9117C184.003 64.8418 183.916 64.7603 183.747 64.6438C183.526 64.4873 183.26 64.4093 182.99 64.4226C182.721 64.4363 182.463 64.5364 182.256 64.7079C182.099 64.8418 182.052 64.9641 182.081 64.9932Z" fill="#263238"/>
<path d="M188.021 65.628C188.021 65.7222 188.049 65.8142 188.101 65.8926C188.153 65.971 188.227 66.0322 188.314 66.0685C188.401 66.1048 188.497 66.1146 188.589 66.0967C188.682 66.0787 188.767 66.0338 188.834 65.9676C188.901 65.9014 188.947 65.8169 188.966 65.7246C188.985 65.6324 188.976 65.5366 188.941 65.4492C188.906 65.3619 188.846 65.2869 188.768 65.2337C188.69 65.1806 188.598 65.1516 188.504 65.1505C188.377 65.1504 188.255 65.2006 188.165 65.29C188.074 65.3793 188.022 65.5008 188.021 65.628Z" fill="#263238"/>
<path d="M187.736 65.0981C187.8 65.1621 188.155 64.8651 188.667 64.8418C189.18 64.8185 189.552 65.0864 189.611 65.0165C189.669 64.9467 189.576 64.8651 189.407 64.7428C189.185 64.5902 188.919 64.5144 188.65 64.527C188.381 64.5396 188.123 64.64 187.916 64.8127C187.759 64.9408 187.706 65.0631 187.736 65.0981Z" fill="#263238"/>
<path d="M185.82 69.4888C185.55 69.4043 185.269 69.3611 184.987 69.3606C184.859 69.3606 184.731 69.3257 184.707 69.2325C184.698 69.0881 184.726 68.9436 184.789 68.8133L185.156 67.736C185.501 66.8184 185.778 65.8763 185.983 64.9175C185.572 65.8052 185.228 66.7219 184.952 67.6603C184.83 68.0446 184.707 68.3998 184.597 68.7492C184.518 68.9203 184.497 69.1127 184.539 69.2966C184.556 69.3446 184.584 69.3877 184.622 69.4222C184.659 69.4567 184.705 69.4815 184.754 69.4946C184.827 69.5049 184.902 69.5049 184.975 69.4946C185.256 69.5296 185.54 69.5277 185.82 69.4888Z" fill="#263238"/>
<path d="M187.497 70.0129C188.021 69.6693 186.053 70.8572 185.016 70.8398C185.193 71.108 185.457 71.3067 185.764 71.4022C186.071 71.4977 186.401 71.4842 186.699 71.3639C186.84 71.3279 186.973 71.2644 187.09 71.1769C187.206 71.0894 187.305 70.9798 187.379 70.8542C187.453 70.7287 187.502 70.5897 187.522 70.4453C187.542 70.3009 187.534 70.154 187.497 70.0129Z" fill="white"/>
<path d="M185.569 75.9759C187.338 75.9279 189.054 75.3654 190.507 74.357C190.507 74.357 189.343 77.1347 185.633 76.9076L185.569 75.9759Z" fill="#A36957"/>
<path d="M201.502 65.6221C201.467 65.3543 201.426 64.9466 201.385 64.5215C201.327 63.9392 201.263 63.3103 201.187 62.9726C199.301 55.0122 192.534 53.4166 191.195 53.3933C189.75 53.3642 187.246 52.5082 183.502 56.3632C182.437 57.3856 181.698 58.7001 181.378 60.1413C181.058 61.5825 181.171 63.0861 181.703 64.4633L182.332 63.881L187.776 62.5416C187.369 61.0334 188.033 59.1816 188.405 58.3198L188.44 58.2849C189.424 63.9975 195.521 64.6904 195.521 64.6904L194.939 79.8309C200.943 78.6196 201.42 68.8832 201.409 65.5872L201.502 65.6221Z" fill="#263238"/>
<path d="M203.86 133.579C203.86 133.504 203.86 133.428 203.86 133.381C203.86 133.335 203.872 133.475 203.86 133.579Z" fill="#B78876"/>
<path d="M210.93 225.895C210.93 225.895 196.872 178.512 196.604 176.98C196.36 175.612 202.87 142.367 203.814 133.742L184.049 133.929C184.049 133.929 184.049 133.981 184.049 134.074L174.499 134.336L179.28 229.022L189.762 229.296L189.605 198.171C194.788 213.369 201.344 230.542 201.344 230.542L210.93 225.895Z" fill="#B78876"/>
<path d="M183.322 174.86C183.351 174.86 183.322 175.233 183.257 175.897C183.212 176.833 183.229 177.77 183.31 178.704C183.431 180.089 183.665 181.462 184.009 182.809C184.464 184.454 185.024 186.069 185.686 187.642C186.984 191.043 188.149 194.124 188.976 196.377L189.966 199.033C190.096 199.354 190.201 199.685 190.28 200.023C190.117 199.716 189.975 199.399 189.855 199.073L188.801 196.453C187.922 194.234 186.728 191.16 185.424 187.759C185.103 186.909 184.789 186.076 184.48 185.272C184.197 184.493 183.958 183.697 183.764 182.891C183.427 181.526 183.211 180.135 183.118 178.733C183.057 177.788 183.073 176.839 183.164 175.897C183.199 175.565 183.24 175.315 183.275 175.134C183.275 175.041 183.291 174.948 183.322 174.86Z" fill="#A36957"/>
<path d="M189.657 209.48C189.657 209.194 189.844 198.928 189.844 198.928C189.844 198.928 186.396 189.413 186.309 189.698C186.222 189.983 189.657 209.48 189.657 209.48Z" fill="#A36957"/>
<path d="M201.706 230.379L210.953 225.895L212.018 227.881L208.752 229.727C206.521 230.944 198.939 234.916 197.146 235.236C195.149 235.597 201.706 230.379 201.706 230.379Z" fill="#53B51E"/>
<path d="M196.732 234.968C196.686 234.898 200.063 233.221 204.274 231.235C208.484 229.249 211.925 227.695 211.966 227.741C212.007 227.788 208.635 229.488 204.425 231.468C200.215 233.448 196.773 235.038 196.732 234.968Z" fill="#263238"/>
<path d="M209.613 228.947C209.567 228.947 209.549 228.772 209.567 228.492C209.59 228.12 209.692 227.757 209.864 227.427C210.057 227.065 210.367 226.78 210.743 226.617C211.052 226.495 211.267 226.524 211.267 226.553C211.267 226.582 211.093 226.647 210.86 226.792C210.566 226.983 210.324 227.243 210.155 227.549C210.004 227.863 209.883 228.191 209.794 228.527C209.718 228.789 209.654 228.952 209.613 228.947Z" fill="#263238"/>
<path d="M201.205 230.804C201.205 230.886 201.49 230.996 201.857 231.119C202.224 231.241 202.532 231.323 202.585 231.253C202.637 231.183 202.375 230.962 201.973 230.828C201.572 230.694 201.216 230.717 201.205 230.804Z" fill="#263238"/>
<path d="M200.57 231.299C200.57 231.387 200.815 231.544 201.152 231.654C201.49 231.765 201.828 231.8 201.869 231.719C201.909 231.637 201.636 231.486 201.286 231.369C200.937 231.253 200.593 231.218 200.57 231.299Z" fill="#263238"/>
<path d="M200.046 231.759C200.011 231.835 200.209 231.981 200.465 232.115C200.721 232.248 200.972 232.324 201.047 232.26C201.123 232.196 200.937 231.998 200.657 231.852C200.378 231.707 200.087 231.678 200.046 231.759Z" fill="#263238"/>
<path d="M201.246 230.88C201.296 230.553 201.262 230.218 201.147 229.908C201.055 229.549 200.892 229.213 200.669 228.918C200.526 228.734 200.357 228.571 200.168 228.434C200.059 228.355 199.939 228.291 199.813 228.242C199.65 228.178 199.469 228.178 199.306 228.242C199.238 228.277 199.178 228.327 199.131 228.388C199.085 228.449 199.052 228.519 199.035 228.594C199.018 228.669 199.018 228.747 199.035 228.822C199.052 228.897 199.085 228.967 199.132 229.028C199.259 229.216 199.403 229.391 199.563 229.552C199.828 229.822 200.116 230.067 200.424 230.286C200.697 230.516 201.008 230.693 201.345 230.81C201.379 230.775 201.059 230.536 200.587 230.129C200.313 229.892 200.052 229.639 199.807 229.372C199.669 229.224 199.545 229.064 199.434 228.894C199.33 228.743 199.359 228.557 199.464 228.516C199.568 228.475 199.784 228.516 199.959 228.661C200.126 228.776 200.277 228.913 200.407 229.069C200.625 229.335 200.796 229.637 200.914 229.96C200.995 230.276 201.107 230.584 201.246 230.88Z" fill="#263238"/>
<path d="M201.245 230.7C200.986 230.442 200.674 230.244 200.331 230.117C199.959 229.953 199.568 229.834 199.167 229.762C198.926 229.719 198.683 229.698 198.439 229.698C198.299 229.699 198.161 229.717 198.025 229.75C197.94 229.769 197.861 229.807 197.792 229.861C197.751 229.893 197.718 229.935 197.697 229.983C197.676 230.03 197.667 230.083 197.67 230.135C197.713 230.276 197.787 230.405 197.888 230.512C197.989 230.619 198.114 230.701 198.252 230.752C198.477 230.862 198.716 230.938 198.963 230.979C199.366 231.036 199.774 231.047 200.18 231.014C200.884 230.973 201.269 230.729 201.234 230.7C200.881 230.751 200.525 230.784 200.168 230.798C199.778 230.801 199.388 230.768 199.004 230.7C198.801 230.659 198.605 230.59 198.421 230.496C198.247 230.403 198.049 230.228 198.037 230.117C198.025 230.007 198.252 229.989 198.474 230.001C198.696 229.992 198.918 230.003 199.137 230.036C199.514 230.096 199.884 230.189 200.244 230.315C200.567 230.469 200.902 230.597 201.245 230.7Z" fill="#263238"/>
<path d="M201.886 230.28C201.938 230.368 204.087 229.546 206.585 228.318C209.084 227.089 211.011 225.988 210.947 225.895C210.883 225.802 208.845 226.786 206.352 228.009C203.86 229.232 201.828 230.193 201.886 230.28Z" fill="#263238"/>
<path d="M180.48 228.918L189.756 228.987L189.599 231.672H189.017C186.326 231.672 175.326 231.474 173.562 230.909C171.57 230.292 180.48 228.918 180.48 228.918Z" fill="#53B51E"/>
<path d="M173.335 230.478C173.335 230.402 176.986 230.542 181.487 230.793C185.989 231.043 189.611 231.317 189.605 231.375C189.599 231.433 185.959 231.317 181.452 231.066C176.945 230.816 173.329 230.571 173.335 230.478Z" fill="#263238"/>
<path d="M186.658 231.212C186.623 231.183 186.711 231.031 186.897 230.804C187.15 230.494 187.458 230.233 187.805 230.036C188.191 229.822 188.63 229.727 189.069 229.762C189.407 229.803 189.582 229.925 189.564 229.954C189.547 229.983 189.354 229.954 189.057 229.954C188.681 229.977 188.315 230.085 187.986 230.269C187.662 230.457 187.358 230.678 187.078 230.927C186.85 231.125 186.693 231.235 186.658 231.212Z" fill="#263238"/>
<path d="M179.781 229.046C179.717 229.11 179.915 229.348 180.165 229.628C180.416 229.908 180.631 230.123 180.719 230.082C180.806 230.041 180.719 229.739 180.439 229.442C180.16 229.145 179.845 228.982 179.781 229.046Z" fill="#263238"/>
<path d="M178.902 229.174C178.832 229.232 178.972 229.494 179.216 229.756C179.461 230.018 179.723 230.193 179.799 230.146C179.874 230.1 179.74 229.838 179.484 229.564C179.228 229.29 178.995 229.116 178.902 229.174Z" fill="#263238"/>
<path d="M178.191 229.314C178.11 229.36 178.191 229.576 178.343 229.809C178.494 230.041 178.651 230.222 178.744 230.193C178.838 230.164 178.809 229.919 178.651 229.669C178.494 229.418 178.267 229.267 178.191 229.314Z" fill="#263238"/>
<path d="M179.775 229.133C180.007 228.887 180.179 228.59 180.276 228.265C180.411 227.927 180.473 227.564 180.456 227.2C180.447 226.977 180.397 226.758 180.311 226.553C180.263 226.436 180.199 226.326 180.119 226.227C180.004 226.095 179.844 226.012 179.67 225.994C179.59 225.987 179.508 225.997 179.431 226.023C179.355 226.049 179.284 226.09 179.224 226.145C179.165 226.2 179.117 226.267 179.084 226.341C179.052 226.415 179.035 226.496 179.036 226.577C179.035 226.792 179.056 227.006 179.1 227.217C179.165 227.568 179.267 227.912 179.402 228.242C179.501 228.566 179.67 228.865 179.897 229.116C179.85 228.796 179.764 228.483 179.641 228.184C179.543 227.854 179.469 227.517 179.42 227.176C179.391 226.984 179.379 226.789 179.385 226.594C179.385 226.419 179.519 226.28 179.641 226.291C179.764 226.303 179.909 226.454 179.985 226.647C180.067 226.831 180.116 227.028 180.13 227.229C180.158 227.562 180.127 227.897 180.037 228.219C179.918 228.514 179.83 228.82 179.775 229.133Z" fill="#263238"/>
<path d="M179.886 228.982C179.807 228.646 179.65 228.335 179.426 228.073C179.201 227.759 178.934 227.477 178.634 227.235C178.453 227.084 178.258 226.951 178.052 226.839C177.928 226.772 177.797 226.721 177.661 226.687C177.571 226.669 177.478 226.669 177.388 226.687C177.332 226.695 177.279 226.714 177.231 226.744C177.184 226.774 177.144 226.815 177.114 226.862C177.063 226.991 177.048 227.131 177.068 227.268C177.089 227.405 177.145 227.534 177.23 227.642C177.357 227.846 177.521 228.024 177.714 228.166C178.04 228.4 178.391 228.595 178.762 228.749C179.099 228.945 179.493 229.023 179.88 228.97C179.539 228.855 179.206 228.717 178.884 228.557C178.549 228.381 178.231 228.175 177.935 227.939C177.779 227.809 177.643 227.656 177.533 227.485C177.482 227.413 177.446 227.332 177.428 227.246C177.41 227.159 177.41 227.07 177.428 226.984C177.428 226.932 177.69 226.984 177.877 227.089C178.084 227.181 178.279 227.296 178.459 227.433C178.753 227.653 179.023 227.905 179.263 228.184C179.624 228.673 179.833 228.999 179.886 228.982Z" fill="#263238"/>
<path d="M180.695 228.918C182.168 229.154 183.659 229.253 185.15 229.215C186.639 229.281 188.13 229.229 189.611 229.057C188.13 228.922 186.642 228.871 185.156 228.906C182.698 228.883 180.701 228.836 180.695 228.918Z" fill="#263238"/>
<path d="M208.851 101.057C208.851 101.057 209.229 99.6357 208.152 90.93C207.686 87.139 205.106 84.7864 202.329 83.3598V83.3132L202.09 83.2433C199.811 82.1423 197.365 81.4298 194.852 81.1353L185.074 80.978C185.074 80.978 177.918 80.0871 173.358 85.0543C168.798 90.0215 165.689 92.939 165.689 92.939L172.974 101.674L174.924 99.7464C174.924 99.7464 174.721 103.77 176.048 106.117L179.199 111.661L177.155 121.426C175.862 125.147 171.599 138.756 173.271 152.237C175.338 168.932 175.67 173.812 175.67 173.812L199.277 177.038C199.277 177.038 208.711 141.691 205.479 127.651C203.26 118.002 201.566 118.451 201.018 116.36L201.612 101.342L208.851 101.057Z" fill="#53B51E"/>
<path d="M176.794 96.497C176.605 97.1207 176.318 97.7104 175.943 98.244C175.661 98.8251 175.285 99.3562 174.831 99.8162C175.023 99.1937 175.31 98.6045 175.681 98.0693C175.966 97.4895 176.342 96.9588 176.794 96.497Z" fill="#263238"/>
<path d="M197.955 114.753C197.71 114.824 197.458 114.873 197.204 114.898C196.715 114.98 196.005 115.073 195.131 115.16C192.842 115.392 190.542 115.488 188.242 115.446C185.941 115.403 183.645 115.226 181.365 114.916C180.491 114.794 179.787 114.677 179.304 114.584C179.048 114.55 178.796 114.489 178.552 114.403C178.81 114.402 179.067 114.424 179.321 114.468L181.388 114.706C183.135 114.893 185.563 115.091 188.248 115.143C190.933 115.195 193.355 115.073 195.108 114.945L197.187 114.782C197.441 114.743 197.699 114.733 197.955 114.753Z" fill="#263238"/>
<path d="M205.91 141.208C205.897 141.364 205.868 141.518 205.823 141.668C205.741 142 205.636 142.442 205.502 142.996C205.427 143.281 205.351 143.578 205.264 143.945C205.176 144.312 205.031 144.661 204.902 145.063C204.635 145.855 204.373 146.781 203.947 147.747L203.319 149.285C203.097 149.815 202.812 150.345 202.544 150.909C202.026 152.039 201.339 153.18 200.646 154.403C197.495 159.609 193.337 164.135 188.417 167.715C187.252 168.507 186.187 169.288 185.098 169.893C184.562 170.208 184.055 170.534 183.543 170.802L182.064 171.553C181.138 172.059 180.235 172.391 179.467 172.717C179.082 172.88 178.721 173.038 178.389 173.166L177.458 173.48L176.165 173.911C176.017 173.967 175.865 174.01 175.711 174.039C175.849 173.962 175.996 173.899 176.147 173.853L177.417 173.37L178.337 173.032C178.669 172.898 179.018 172.729 179.403 172.56C180.16 172.211 181.05 171.867 181.971 171.349L183.432 170.58C183.939 170.312 184.44 169.998 184.97 169.666C186.047 169.055 187.112 168.268 188.254 167.477C193.133 163.899 197.269 159.405 200.43 154.246C201.129 153.047 201.822 151.917 202.34 150.793C202.614 150.211 202.923 149.716 203.126 149.186C203.33 148.656 203.569 148.149 203.773 147.666C204.21 146.705 204.483 145.797 204.769 145.01C204.903 144.614 205.042 144.248 205.147 143.904C205.252 143.56 205.333 143.246 205.409 142.961L205.788 141.656C205.818 141.504 205.859 141.354 205.91 141.208Z" fill="#263238"/>
<path d="M208.478 95.9612C208.363 96.0482 208.238 96.1205 208.105 96.1767C207.861 96.3048 207.523 96.497 207.016 96.7241C205.673 97.4076 204.234 97.8828 202.748 98.1333C201.708 98.2829 200.65 98.2255 199.632 97.9644C199.062 97.8132 198.518 97.5756 198.019 97.2598C197.499 96.9142 197.034 96.4922 196.639 96.0078C195.862 94.9459 195.164 93.8287 194.549 92.6653C193.867 91.5006 192.982 90.336 191.637 89.8934C190.292 89.4509 188.877 89.7828 187.59 90.1496C186.341 90.587 185.042 90.8667 183.723 90.9824C182.937 91.0108 182.153 90.8741 181.423 90.5812C180.693 90.2882 180.032 89.8454 179.483 89.2814C178.935 88.7174 178.51 88.0446 178.238 87.3065C177.965 86.5684 177.85 85.7813 177.9 84.9961C177.94 84.3454 178.088 83.7058 178.337 83.1035C178.534 82.5853 178.833 82.1119 179.216 81.7118C178.911 82.1636 178.654 82.6456 178.448 83.1501C178.221 83.7445 178.093 84.372 178.069 85.0077C178.045 85.7597 178.175 86.5086 178.451 87.2085C178.726 87.9084 179.142 88.5446 179.673 89.0779C180.204 89.6113 180.838 90.0305 181.536 90.3099C182.235 90.5894 182.983 90.7231 183.735 90.7029C185.029 90.5804 186.302 90.2968 187.526 89.8585C188.196 89.6532 188.881 89.5033 189.576 89.4101C190.307 89.3135 191.051 89.3811 191.754 89.6081C192.451 89.857 193.078 90.2705 193.582 90.8135C194.057 91.3332 194.473 91.9034 194.822 92.5139C195.429 93.6657 196.114 94.7747 196.872 95.8331C197.594 96.7512 198.593 97.4127 199.72 97.7199C200.704 97.9862 201.731 98.0555 202.742 97.9237C204.213 97.6929 205.642 97.2516 206.987 96.6134L208.099 96.1185C208.222 96.0572 208.348 96.0047 208.478 95.9612Z" fill="white"/>
<path d="M194.624 116.593C194.824 116.295 194.965 115.96 195.038 115.609C195.096 115.127 195.044 114.639 194.887 114.18C194.73 113.721 194.471 113.304 194.129 112.959C193.66 112.479 193.083 112.118 192.447 111.905C191.71 111.657 190.948 111.491 190.175 111.41C189.354 111.3 188.475 111.236 187.578 111.043C186.633 110.872 185.739 110.488 184.964 109.92C184.579 109.612 184.253 109.237 184.003 108.813C183.768 108.404 183.573 107.973 183.421 107.526C183.181 106.7 182.863 105.899 182.471 105.133C182.104 104.515 181.587 103.999 180.969 103.633C180.35 103.266 179.649 103.061 178.931 103.036C177.947 103.019 176.986 103.33 176.2 103.922C175.919 104.148 175.653 104.391 175.402 104.65C175.402 104.65 175.443 104.562 175.553 104.411C175.727 104.197 175.922 104.002 176.136 103.828C176.925 103.175 177.918 102.819 178.942 102.821C179.703 102.834 180.448 103.039 181.108 103.418C181.768 103.797 182.321 104.337 182.716 104.987C183.123 105.767 183.455 106.584 183.706 107.427C183.958 108.304 184.462 109.088 185.156 109.681C185.893 110.218 186.74 110.584 187.637 110.752C188.51 110.944 189.384 111.014 190.205 111.137C191.847 111.34 193.407 111.812 194.281 112.814C194.635 113.183 194.898 113.631 195.049 114.12C195.199 114.609 195.234 115.127 195.149 115.632C195.089 115.903 194.974 116.159 194.811 116.383C194.757 116.46 194.694 116.53 194.624 116.593Z" fill="white"/>
<path d="M203.761 157.95C202.984 157.872 202.2 157.906 201.432 158.049C200.533 158.234 199.645 158.465 198.771 158.742C197.606 159.13 196.393 159.35 195.166 159.394C193.67 159.423 192.184 159.131 190.81 158.538C189.215 157.871 187.844 156.759 186.862 155.335C185.813 153.721 185.365 151.789 185.598 149.879C185.713 148.873 186.019 147.898 186.501 147.008C187.002 146.086 187.705 145.29 188.557 144.679C189.384 144.061 190.304 143.514 190.717 142.658C190.927 142.236 190.996 141.759 190.915 141.295C190.822 140.826 190.665 140.371 190.449 139.944C189.958 139.104 189.626 138.18 189.471 137.219C189.381 136.279 189.521 135.332 189.879 134.459C190.565 132.852 191.849 131.576 193.46 130.901C194.838 130.314 196.331 130.045 197.827 130.115C199.037 130.177 200.251 130.142 201.455 130.01C202.358 129.883 203.219 129.548 203.971 129.031C204.452 128.706 204.85 128.273 205.135 127.768C205.322 127.418 205.363 127.215 205.386 127.22C205.35 127.423 205.283 127.62 205.188 127.803C204.923 128.33 204.536 128.785 204.058 129.13C203.3 129.676 202.424 130.037 201.502 130.184C200.289 130.337 199.066 130.387 197.845 130.336C196.38 130.28 194.922 130.552 193.576 131.134C192.036 131.798 190.812 133.034 190.164 134.581C189.824 135.412 189.694 136.314 189.785 137.207C189.939 138.136 190.263 139.028 190.74 139.839C190.971 140.289 191.136 140.769 191.23 141.266C191.325 141.791 191.248 142.333 191.008 142.809C190.513 143.776 189.57 144.329 188.76 144.935C187.962 145.516 187.297 146.26 186.807 147.117C186.317 147.974 186.014 148.925 185.919 149.908C185.697 151.741 186.121 153.594 187.118 155.149C188.068 156.533 189.39 157.619 190.933 158.282C192.275 158.866 193.725 159.162 195.189 159.149C196.399 159.126 197.599 158.93 198.753 158.567C199.635 158.3 200.531 158.084 201.438 157.921C202.014 157.818 202.601 157.791 203.185 157.839C203.38 157.858 203.573 157.895 203.761 157.95Z" fill="white"/>
<path d="M195.521 176.52C195.492 176.52 195.521 176.112 195.562 175.384C195.618 174.363 195.437 173.342 195.032 172.403C194.746 171.772 194.244 171.264 193.617 170.97C192.876 170.683 192.081 170.562 191.288 170.615C190.364 170.689 189.435 170.575 188.557 170.278C188.103 170.067 187.704 169.754 187.392 169.363C187.082 168.966 186.812 168.539 186.588 168.088C186.206 167.207 185.704 166.382 185.098 165.636C184.512 164.965 183.81 164.404 183.025 163.983C181.688 163.262 180.155 162.988 178.651 163.202C177.637 163.347 176.661 163.691 175.78 164.216C175.163 164.594 174.86 164.868 174.843 164.85C174.825 164.833 174.907 164.769 175.047 164.635C176.054 163.751 177.296 163.181 178.622 162.993C180.173 162.737 181.765 162.999 183.153 163.738C183.974 164.166 184.708 164.742 185.319 165.438C185.641 165.799 185.927 166.189 186.175 166.603C186.42 167.034 186.629 167.482 186.856 167.925C187.211 168.802 187.859 169.529 188.691 169.981C189.532 170.263 190.42 170.376 191.305 170.312C192.146 170.264 192.987 170.402 193.768 170.714C194.439 171.044 194.972 171.601 195.271 172.287C195.667 173.262 195.823 174.319 195.725 175.367C195.696 175.734 195.661 176.019 195.626 176.206C195.601 176.313 195.566 176.419 195.521 176.52Z" fill="white"/>
<path d="M181.551 128.362C181.412 128.705 181.253 129.039 181.074 129.363C180.604 130.242 180.31 131.203 180.206 132.193C180.168 132.87 180.315 133.545 180.631 134.144C181.025 134.83 181.468 135.486 181.959 136.107C182.516 136.855 182.919 137.707 183.144 138.613C183.369 139.519 183.412 140.46 183.269 141.383C183.119 142.311 182.751 143.191 182.194 143.95C181.637 144.708 180.908 145.323 180.066 145.744C179.336 146.117 178.528 146.317 177.708 146.326C176.836 146.317 175.981 146.085 175.224 145.653C174.467 145.221 173.833 144.603 173.381 143.857C173.245 143.618 173.132 143.367 173.043 143.106C173.008 143.015 172.986 142.919 172.979 142.821C173.131 143.155 173.301 143.482 173.486 143.799C174.03 144.632 174.811 145.283 175.728 145.668C176.35 145.942 177.023 146.079 177.702 146.07C178.484 146.051 179.252 145.852 179.944 145.488C180.739 145.081 181.428 144.492 181.954 143.77C182.48 143.048 182.829 142.212 182.972 141.33C183.245 139.539 182.797 137.713 181.726 136.252C181.235 135.617 180.793 134.946 180.404 134.243C180.079 133.601 179.936 132.882 179.991 132.164C180.114 131.152 180.447 130.176 180.969 129.299C181.144 128.985 181.283 128.746 181.388 128.589C181.435 128.508 181.49 128.432 181.551 128.362Z" fill="white"/>
<path d="M199.097 108.825C199.049 108.597 199.025 108.365 199.027 108.132C199.027 107.619 198.969 106.967 198.934 106.233C198.852 104.568 198.747 102.396 198.631 99.9909C198.514 97.5859 198.433 95.3323 198.415 93.7368C198.415 92.9331 198.415 92.2868 198.415 91.8384C198.404 91.6044 198.42 91.37 198.462 91.1396C198.514 91.3688 198.537 91.6035 198.532 91.8384C198.561 92.345 198.59 93.003 198.631 93.7309C198.707 95.3964 198.811 97.5685 198.934 99.9735C199.056 102.378 199.126 104.632 199.143 106.228C199.143 107.031 199.143 107.678 199.143 108.126C199.155 108.36 199.139 108.594 199.097 108.825Z" fill="#263238"/>
<path d="M198.893 101.447C198.893 101.447 199.865 113.198 198.747 114.013C192.522 118.363 184.247 120.11 181.278 120.629C180.864 120.477 180.387 120.297 179.833 120.046C179.354 119.833 178.915 119.539 178.535 119.179C178.045 118.748 177.614 118.255 177.254 117.711C177.211 117.592 177.13 117.49 177.023 117.421C176.917 117.352 176.79 117.319 176.664 117.328C176.537 117.338 176.417 117.388 176.322 117.472C176.226 117.556 176.161 117.668 176.136 117.793C176.06 118.334 176.794 119.825 178.314 121.013C179.833 122.201 176.846 122.271 175.757 122.311C174.668 122.352 171.314 122.649 171.069 123.004C170.708 123.517 171.186 124.018 172.275 123.948C173.364 123.878 176.625 123.907 176.631 124.495C176.636 125.083 171.093 125.217 171.093 125.217C171.093 125.217 169.928 125.054 169.887 125.73C169.852 126.953 175.711 126.359 176.293 126.312C176.683 126.265 176.706 126.894 176.293 126.935C175.879 126.976 170.767 126.935 170.72 128.187C170.685 129.142 175.553 127.745 176.619 128.35C177.685 128.956 172.816 129.026 172.822 129.94C172.822 130.283 172.869 130.522 175.652 130.085C177.644 129.67 179.612 129.145 181.545 128.513V128.542C181.545 128.542 210.493 126.062 209.765 113.012C209.276 104.178 209.439 105.808 208.897 101.167" fill="#B78876"/>
</svg>
